<?xml version="1.0" encoding="utf-8"?>
<!-- Generator: Adobe Illustrator 22.1.0, SVG Export Plug-In . SVG Version: 6.00 Build 0)  -->
<svg version="1.1" id="Layer_1" xmlns="http://www.w3.org/2000/svg" xmlns:xlink="http://www.w3.org/1999/xlink" x="0px" y="0px"
	 viewBox="0 0 743.9 513" style="enable-background:new 0 0 743.9 513;" xml:space="preserve">
<style type="text/css">
	.st0{fill:#62DD73;}
</style>
<title>Resources</title>
<g>
	<path class="st0" d="M291.9,21H43.1c-9.1,0-16.5,7.4-16.5,16.5v158.4c0,9.1,7.4,16.5,16.5,16.5h62.7v18.5H81v9.7h174v-9.7h-25.8
		v-18.5h62.7c9.1,0,16.5-7.4,16.5-16.5V37.5C308.4,28.4,301,21,291.9,21z M219.5,230.9h-104v-18.5h104V230.9z M298.7,195.9
		c0,3.8-3,6.8-6.8,6.8H43.1c-3.8,0-6.8-3-6.8-6.8V37.5c0-3.8,3-6.8,6.8-6.8h248.8c3.8,0,6.8,3,6.8,6.8L298.7,195.9L298.7,195.9z"/>
	<path class="st0" d="M269,41.4H66c-9.1,0-16.6,7.4-16.6,16.5V159c0,9.1,7.4,16.5,16.6,16.5h203c9.1,0,16.5-7.4,16.5-16.5V57.9
		C285.5,48.8,278.1,41.4,269,41.4z M275.8,159c0,3.8-3,6.8-6.8,6.8H66c-3.8,0-6.8-3-6.8-6.8V57.9c0-3.8,3.1-6.8,6.8-6.8h203
		c3.8,0,6.8,3,6.8,6.8V159z"/>
	<path class="st0" d="M182.3,184.2h-29.6c-2.7,0-4.9,2.2-4.9,4.9s2.2,4.9,4.9,4.9h29.6c2.7,0,4.9-2.2,4.9-4.9S185,184.2,182.3,184.2
		z"/>
	<path class="st0" d="M147.3,103.6H84.6c-2.7,0-4.9,2.2-4.9,4.9s2.2,4.9,4.9,4.9h62.7c2.7,0,4.9-2.2,4.9-4.9S150,103.6,147.3,103.6z
		"/>
	<path class="st0" d="M252.3,103.6h-62.7c-2.7,0-4.9,2.2-4.9,4.9s2.2,4.9,4.9,4.9h62.7c2.7,0,4.9-2.2,4.9-4.9
		S254.9,103.6,252.3,103.6L252.3,103.6z"/>
	<path class="st0" d="M147.3,132.7H84.6c-2.7,0-4.9,2.2-4.9,4.9s2.2,4.9,4.9,4.9h62.7c2.7,0,4.9-2.2,4.9-4.9S150,132.7,147.3,132.7z
		"/>
	<path class="st0" d="M252.3,132.7h-62.7c-2.7,0-4.9,2.2-4.9,4.9s2.2,4.9,4.9,4.9h62.7c2.7,0,4.9-2.2,4.9-4.9
		S254.9,132.7,252.3,132.7L252.3,132.7z"/>
	<path class="st0" d="M147.3,74.4H84.6c-2.7,0-4.9,2.2-4.9,4.9s2.2,4.9,4.9,4.9h62.7c2.7,0,4.9-2.2,4.9-4.9S150,74.4,147.3,74.4z"/>
	<path class="st0" d="M188.6,84.1h62.7c2.7,0,4.9-2.2,4.9-4.9s-2.2-4.9-4.9-4.9h-62.7c-2.7,0-4.9,2.2-4.9,4.9S185.9,84.1,188.6,84.1
		z"/>
	<path class="st0" d="M700.1,21H451.3c-9.1,0-16.5,7.4-16.5,16.5v158.4c0,9.1,7.4,16.5,16.5,16.5H514v18.5h-24.8v9.7h174v-9.7h-25.8
		v-18.5h62.7c9.1,0,16.5-7.4,16.5-16.5V37.5C716.6,28.4,709.2,21,700.1,21z M627.7,230.9h-104v-18.5h104V230.9z M706.9,195.9
		c0,3.8-3,6.8-6.8,6.8H451.3c-3.8,0-6.8-3-6.8-6.8V37.5c0-3.8,3.1-6.8,6.8-6.8h248.8c3.8,0,6.8,3,6.8,6.8L706.9,195.9L706.9,195.9z"
		/>
	<path class="st0" d="M677.2,41.4h-203c-9.1,0-16.5,7.4-16.5,16.5V159c0,9.1,7.4,16.5,16.5,16.5h203c9.1,0,16.5-7.4,16.5-16.5V57.9
		C693.7,48.8,686.3,41.4,677.2,41.4z M684,159c0,3.8-3,6.8-6.8,6.8H474.1c-3.8,0-6.8-3-6.8-6.8V57.9c0-3.8,3-6.8,6.8-6.8h203
		c3.8,0,6.8,3,6.8,6.8L684,159z"/>
	<path class="st0" d="M590.5,184.2h-29.6c-2.7,0-4.9,2.2-4.9,4.9s2.2,4.9,4.9,4.9h29.6c2.7,0,4.9-2.2,4.9-4.9
		S593.2,184.2,590.5,184.2z"/>
	<path class="st0" d="M555.5,103.6h-62.7c-2.7,0-4.9,2.2-4.9,4.9s2.2,4.9,4.9,4.9l0,0h62.7c2.7,0,4.9-2.2,4.9-4.9
		S558.2,103.6,555.5,103.6z"/>
	<path class="st0" d="M660.5,103.6h-62.7c-2.7,0-4.9,2.2-4.9,4.9s2.2,4.9,4.9,4.9h62.7c2.7,0,4.9-2.2,4.9-4.9
		S663.1,103.6,660.5,103.6L660.5,103.6z"/>
	<path class="st0" d="M555.5,132.7h-62.7c-2.7,0-4.9,2.2-4.9,4.9s2.2,4.9,4.9,4.9l0,0h62.7c2.7,0,4.9-2.2,4.9-4.9
		S558.2,132.7,555.5,132.7z"/>
	<path class="st0" d="M660.5,132.7h-62.7c-2.7,0-4.9,2.2-4.9,4.9s2.2,4.9,4.9,4.9h62.7c2.7,0,4.9-2.2,4.9-4.9
		S663.1,132.7,660.5,132.7L660.5,132.7z"/>
	<path class="st0" d="M555.5,74.4h-62.7c-2.7,0-4.9,2.2-4.9,4.9s2.2,4.9,4.9,4.9l0,0h62.7c2.7,0,4.9-2.2,4.9-4.9
		S558.2,74.4,555.5,74.4z"/>
	<path class="st0" d="M596.8,84.1h62.7c2.7,0,4.9-2.2,4.9-4.9s-2.2-4.9-4.9-4.9h-62.7c-2.7,0-4.9,2.2-4.9,4.9S594.1,84.1,596.8,84.1
		L596.8,84.1z"/>
	<path class="st0" d="M345.5,119.1h-12.2l5.7-6.6c1.8-2,1.7-5-0.2-6.9c-2-1.8-5-1.7-6.9,0.2c-0.1,0.1-0.2,0.2-0.3,0.3L319,120.8
		c-1.6,1.9-1.6,4.7,0.1,6.5l13.6,14.6c1.8,2,4.9,2.1,6.9,0.2s2.1-4.9,0.2-6.9l-6-6.4h11.7c2.7,0,4.9-2.2,4.9-4.9
		S348.2,119.1,345.5,119.1L345.5,119.1z"/>
	<path class="st0" d="M378.5,119.1H362c-2.7,0-4.9,2.2-4.9,4.9c0,2.7,2.2,4.9,4.9,4.9h16.5c2.7,0,4.9-2.2,4.9-4.9
		S381.2,119.1,378.5,119.1L378.5,119.1z"/>
	<path class="st0" d="M409.9,106.2c-1.8-2-4.9-2.1-6.9-0.2c-1.8,1.7-2.1,4.6-0.5,6.6l5.8,6.7c-0.4-0.1-0.8-0.1-1.1-0.2H395
		c-2.7,0-4.9,2.2-4.9,4.9c0,2.7,2.2,4.9,4.9,4.9h12.2c0.2,0,0.4,0,0.5-0.1l-6,6.4c-1.8,2-1.7,5,0.2,6.9s5,1.7,6.9-0.2l13.6-14.6
		c1.7-1.8,1.7-4.6,0.1-6.5L409.9,106.2z M412,124.2c0-0.1,0-0.1,0-0.2c0-0.2,0-0.3,0-0.5l0.3,0.4L412,124.2z"/>
	<path class="st0" d="M499.2,273.1H250.4c-9.1,0-16.5,7.4-16.5,16.5V448c0,9.1,7.4,16.5,16.5,16.5h62.7V483h-24.8v9.7h174V483h-25.8
		v-18.5h62.7c9.1,0,16.5-7.4,16.5-16.5V289.6C515.8,280.5,508.4,273.1,499.2,273.1z M426.8,483h-104v-18.5h104V483z M506,448
		c0,3.8-3,6.8-6.8,6.8H250.4c-3.8,0-6.8-3-6.8-6.8V289.6c0-3.8,3-6.8,6.8-6.8h248.8c3.8,0,6.8,3,6.8,6.8V448z"/>
	<path class="st0" d="M476.4,293.5h-203c-9.1,0-16.5,7.4-16.6,16.5v101.1c0,9.1,7.4,16.5,16.5,16.5h203c9.1,0,16.5-7.4,16.5-16.5
		V310C492.8,300.9,485.5,293.5,476.4,293.5z M483.2,411.1c0,3.8-3,6.8-6.8,6.8h-203c-3.8,0-6.8-3-6.8-6.8V310c0-3.8,3.1-6.8,6.8-6.8
		h203c3.8,0,6.8,3,6.8,6.8V411.1z"/>
	<path class="st0" d="M389.7,436.4H360c-2.7,0-4.9,2.2-4.9,4.9c0,2.7,2.2,4.9,4.9,4.9l0,0h29.6c2.7,0,4.9-2.2,4.9-4.9
		C394.5,438.5,392.3,436.4,389.7,436.4L389.7,436.4z"/>
	<path class="st0" d="M354.7,355.7H292c-2.7,0-4.9,2.2-4.9,4.9c0,2.7,2.2,4.9,4.9,4.9h62.7c2.7,0,4.9-2.2,4.9-4.9
		C359.5,357.9,357.3,355.7,354.7,355.7L354.7,355.7z"/>
	<path class="st0" d="M459.6,355.7H397c-2.7,0-4.9,2.2-4.9,4.9c0,2.7,2.2,4.9,4.9,4.9h62.7c2.7,0,4.9-2.2,4.9-4.9
		C464.5,357.9,462.3,355.7,459.6,355.7L459.6,355.7z"/>
	<path class="st0" d="M354.7,384.9H292c-2.7,0-4.9,2.2-4.9,4.9c0,2.7,2.2,4.9,4.9,4.9h62.7c2.7,0,4.9-2.2,4.9-4.9
		C359.5,387,357.3,384.9,354.7,384.9L354.7,384.9z"/>
	<path class="st0" d="M459.6,384.9H397c-2.7,0-4.9,2.2-4.9,4.9c0,2.7,2.2,4.9,4.9,4.9h62.7c2.7,0,4.9-2.2,4.9-4.9
		C464.5,387,462.3,384.9,459.6,384.9L459.6,384.9z"/>
	<path class="st0" d="M354.7,326.5H292c-2.7,0-4.9,2.2-4.9,4.9c0,2.7,2.2,4.9,4.9,4.9h62.7c2.7,0,4.9-2.2,4.9-4.9
		C359.5,328.7,357.3,326.5,354.7,326.5L354.7,326.5z"/>
	<path class="st0" d="M396,336.3h62.7c2.7,0,4.9-2.2,4.9-4.9c0-2.7-2.2-4.9-4.9-4.9H396c-2.7,0-4.9,2.2-4.9,4.9
		C391.1,334.1,393.3,336.3,396,336.3z"/>
	<path class="st0" d="M573.1,331.1l-8.4,8.8l0,0l-0.8-8.6c-0.2-2.7-2.6-4.7-5.3-4.4c-2.7,0.2-4.7,2.6-4.4,5.3l0,0l1.7,19.2
		c0.2,2.5,2.3,4.4,4.8,4.4l19.9,0.3c2.7,0,4.9-2.1,4.9-4.8c0-2.7-2.1-4.9-4.8-4.9l-8.8-0.1l8.1-8.4c1.8-2,1.7-5.1-0.3-6.9
		C577.9,329.2,574.9,329.2,573.1,331.1L573.1,331.1z"/>
	<path class="st0" d="M596,307.3l-11.5,11.9c-1.9,1.9-1.9,5,0,6.9s5,1.9,6.9,0c0.1-0.1,0.1-0.1,0.2-0.2L603,314
		c1.8-2,1.7-5.1-0.3-6.9C600.8,305.4,597.8,305.4,596,307.3L596,307.3z"/>
	<path class="st0" d="M608.4,275.7c-2.7-0.2-5,1.7-5.3,4.4s1.7,5,4.4,5.3c0.1,0,0.2,0,0.4,0l8.8,0.5c-0.3,0.2-0.6,0.5-0.9,0.7
		l-8.4,8.8c-1.9,1.9-1.9,5,0,6.9s5,1.9,6.9,0c0.1-0.1,0.1-0.1,0.2-0.2l8.4-8.8c0.1-0.1,0.2-0.3,0.3-0.4l0.5,8.8
		c0.1,2.7,2.4,4.7,5.1,4.6c2.7-0.1,4.7-2.4,4.6-5.1l-1.1-19.9c-0.1-2.5-2.1-4.5-4.6-4.6L608.4,275.7z M622.8,286.6l-0.1-0.1
		c-0.1-0.1-0.2-0.2-0.4-0.3h0.5V286.6z"/>
	<path class="st0" d="M179.4,331.1l8.4,8.8l0,0l0.8-8.6c0.3-2.7,2.6-4.6,5.3-4.4c2.7,0.3,4.6,2.6,4.4,5.3l-1.8,19.2
		c-0.2,2.5-2.3,4.4-4.8,4.4l-19.9,0.3c-2.7,0-4.9-2.1-4.9-4.8s2.1-4.9,4.8-4.9l8.8-0.1l-8.1-8.4c-1.8-2-1.7-5.1,0.3-6.9
		C174.6,329.2,177.5,329.2,179.4,331.1L179.4,331.1z"/>
	<path class="st0" d="M156.5,307.3l11.5,11.9c1.9,1.9,1.9,5,0,6.9s-5,1.9-6.9,0c-0.1-0.1-0.1-0.1-0.2-0.2L149.5,314
		c-1.9-1.9-1.9-5,0-6.9s5-1.9,6.9,0C156.4,307.2,156.5,307.2,156.5,307.3L156.5,307.3z"/>
	<path class="st0" d="M124.8,276.7c-2.5,0.1-4.5,2.1-4.6,4.6l-1.1,19.9c-0.1,2.7,1.9,5,4.6,5.1s5-1.9,5.1-4.6l0.5-8.8
		c0.1,0.1,0.2,0.3,0.3,0.4l8.4,8.8c1.9,1.9,5,1.9,6.9,0c1.8-1.8,1.9-4.8,0.1-6.7l-8.4-8.8c-0.3-0.3-0.6-0.5-0.9-0.7l8.8-0.5
		c2.7-0.2,4.6-2.6,4.4-5.3c-0.2-2.5-2.4-4.5-4.9-4.4L124.8,276.7z M129.7,286.2h0.5c-0.1,0.1-0.3,0.2-0.4,0.3c0,0.1-0.1,0.1-0.1,0.1
		V286.2z"/>
</g>
</svg>
