<?xml version="1.0" encoding="utf-8"?>
<!-- Generator: Adobe Illustrator 22.1.0, SVG Export Plug-In . SVG Version: 6.00 Build 0)  -->
<svg version="1.1" id="Layer_1" xmlns="http://www.w3.org/2000/svg" xmlns:xlink="http://www.w3.org/1999/xlink" x="0px" y="0px"
	 viewBox="0 0 567.9 522.4" style="enable-background:new 0 0 567.9 522.4;" xml:space="preserve">
<style type="text/css">
	.st0{fill:#62DD73;}
</style>
<title>Resources</title>
<g>
	<path class="st0" d="M26,251.6c0-5.1-0.5-10.2,0.1-15.2c2.5-19,3.5-38.4,8.6-56.7C48.7,130.9,81,89.4,125,63.9
		c27.5-16.2,58.1-26.3,89.9-29.8c18.5-2,37.4-3.1,55.9-2c17.7,1,35.4,4.6,52.7,8.6c12.4,2.9,24.1,8.6,36.2,12.8
		c20.1,7.2,38.8,17.9,55.3,31.5c25,20.5,48.8,42.3,73,63.8c19.5,17.3,32.4,39,41.3,62.5c7.2,19.1,11.4,39.2,12.4,59.6
		c1.9,34.8-4.2,68.4-15.5,101.4c-6.2,18.2-16.8,34-30.1,47.9c-12,12.5-25.9,23-41.1,31.2c-19.7,10.6-40,19.4-61.8,24.8
		c-17,4.2-34.7,6.5-51.4,11.4c-18.1,5.5-36.7,9.4-55.5,11.7c-35.8,4.2-70.4-0.3-104-11.7c-15.2-5.1-30.6-11-44-19.3
		c-16-9.8-30.9-21.3-44.3-34.5c-12-11.9-21.2-26.4-30.9-40.3c-14-20-23.3-42.5-28.6-65.7c-5.6-24.9-7.2-50.7-10.6-76.1L26,251.6z
		 M410.4,146.2c12.4,17.3,19.5,36.4,25,56.7c4.7,17.6,4,35,3.5,52.4c-0.3,10.6-3.8,21.1-5.8,31.7c-1.9,10-3.9,20-5.4,30.1
		c-3,19.5-11.9,36.2-24,52.1c-10.6,14-24.2,24-38.9,33.3c-5.5,3.5-11.8,6-17.6,9c-20.5,10.8-41.5,21-64.5,24.7
		c-21.4,3.5-43,4.7-65.1,1.4c-27.6-4.2-53.1-12.4-76.7-26.1c-21.9-12.7-39.2-29.6-50.7-52c-14.3-27.8-18.5-57.2-16.6-87.4
		c1.3-22.4,6.7-44.5,16-64.9c9-19.6,19.3-38.5,34.7-54.2c9.1-9.2,19-17.8,29.4-25.5c14.6-10.9,31.2-18.5,48.9-22.6
		c22.3-5.2,44.9-7.4,67.7-2.3c8.8,2,16.8,2.2,25.8-2c10-4.6,21.6-6.1,32.6-8.9l7.5-2c-20-9-39.9-13.7-60.6-16.4
		c-22.3-2.9-43.7-0.5-65.4,4.8c-29.5,7.1-53.9,21.9-75.6,41.6c-21.4,19.4-39,42.6-51.9,68.4c-8.5,16.9-17.9,33.6-24.1,51.2
		c-10.4,29.5-15.4,59.9-9.5,91.4c2.7,14.8,6.5,29,13.8,42.2c0.8,1.4,2.7,2.2,4,3.4c12,11.2,23.3,23.1,36.1,33.5
		c19.3,15.7,40.3,29.2,63.4,39.5c15.5,6.9,31.1,13.6,47.2,18.9c27,8.8,54.8,15.2,83.5,15.1c17-0.1,34.1-0.5,50.8-3.1
		c10.6-1.7,21.1-6.5,30.3-12.1c15.4-9.2,30.2-19.4,44.2-30.5c27.3-22.1,47.9-49.3,57.8-82.5c8.5-28.5,8.2-57.5,1.2-86.4
		c-3.1-12.7-6.4-25.4-10.7-37.8c-7.4-21.1-18.2-40.9-31.9-58.6c-10.1-13.3-21.6-25.6-32.6-38.3c-1-0.9-2-1.7-3.1-2.4l-1.9,1.2
		C404.1,137.2,407.2,141.8,410.4,146.2z M196.5,162.4c-26.5,12.8-44.2,33-54,59.7c-8.2,21.9-10.7,45.6-7.2,68.7
		c5.7,39,25.2,69.5,58.2,92.8c19.7,14,41.8,22.9,65.4,27.8c18.6,3.9,37.6,4,57.1,1.5c27.2-3.5,46.3-17.4,64.1-35.4
		c20.9-21.2,33.9-46.4,44.4-73.2c0.6-1.5,0.4-3.2,0.6-4.8c1.7-22.2-0.9-44.6-7.8-65.8c-7-22.2-18.1-42.9-32.9-60.9
		c-19-23.1-42.4-40.5-69.4-53.8c-6.8-3.3-14.1-5.6-21.3-8.3c-6-2.2-11.4-0.3-15.9,3.2c-11.4,8.8-22.4,18-33.4,27.2
		c-1.7,1.4-2.8,3.5-4.9,6.2c4.6,0.4,7.9,0.7,11.1,0.9c44.4,2.6,81,20.8,111.4,51.1c14.6,14.6,25.9,31.3,31.2,50.8
		c7.7,28.6,5.1,55.6-19.4,77c-5,4.4-11.5,7.4-17.6,10.5c-9.7,4.9-19.4,9.9-29.5,13.8c-18.5,7.1-37.2,10.4-57.8,6.7
		c-21.1-3.8-37.3-13.8-51.2-27.9c-11.3-11.5-17.5-25.9-21.9-41.1c-4.2-14.7-5.1-29.6-4.5-44.7c1.2-30.8,10.5-58.9,29.8-83.8
		c1.4-1.8,2-4,3-6l-0.8-1.9C214.5,156,205.1,158.3,196.5,162.4L196.5,162.4z M279.4,418.8c-19.1-0.2-37-5.7-54.5-12.3
		c-18.8-7.1-36.1-17.7-51.1-31.2c-18-16.2-30.1-36-38.4-58.6c-7.8-21-8.3-42.5-6.1-63.7c2.1-22.5,10.7-43.9,24.6-61.7
		c12.1-15.6,28.1-27.7,46.4-35.1c7.4-3,15.9-3.7,23.5-6.4c4.6-1.6,8.9-4.8,12.8-7.9c12.1-9.5,24-19.3,35.9-29
		c1.5-1.2,3.2-2.1,4.7-3.3c0.8-0.8,1.4-1.7,2-2.6c-32.6-6.7-64.4-5.6-94.3,7.1c-27.9,11.8-51.1,30.2-68.4,55.1
		c-12.5,17.9-23.2,36.6-29.3,57.3c-4.2,14.6-7,29.7-8.3,44.8c-1.9,18.5-0.5,37.2,4.2,55.2c7.9,30.1,23.4,55.6,49.8,74.5
		c19.5,13.9,41.3,24,64.9,28.4c18.8,3.5,38.4,3.9,57.7,4.3c18.7,0.4,36.8-4.4,54.5-10.3c1.1-0.3,2.2-0.8,3.3-1.2
		c1.2-0.6,2.4-1.3,3.5-2l-0.3-1.3C304.1,418.8,291.7,418.9,279.4,418.8L279.4,418.8z M49,348.3c-6.6-20.9-7.6-42.1-4-63.5
		c2.3-14.1,3.9-28.5,8.3-42c5.3-16.1,12.5-31.7,20.2-46.9c11.9-23.4,25.9-45.8,44.9-64.8c11.4-11.4,23.7-21.9,36.7-31.4
		c14.3-10.3,30.4-18,47.5-22.5c24.2-6.6,48.7-10.3,73.8-6c16.5,2.9,32.8,6.9,49,10.8c4.8,1.2,9.3,3.7,14,5.4c2,0.8,4.1,1,6.2,0.8
		c-18.1-11.6-38-19.7-58.5-26.4L288,60c8.8,3.2,17.9,5.9,26.4,9.8c12.4,5.6,24,12.6,36.5,17.9c5.5,2.3,12.3,1.6,18.5,2.4
		c23.7,3.2,46.5,9.1,67.3,20.8c0.5,0.3,1.4,0,2.8,0c-0.6-1.2-0.8-2.3-1.5-2.9c-25.5-23-53.4-42.6-86.6-54.4
		c-14.6-5.2-29.2-10.8-44.4-14c-24.9-5.3-50.5-6.8-75.9-4.5c-16.3,1.3-32.5,3.9-48.4,7.7c-19.5,4.8-38.1,12.4-55.5,22.5
		C103.9,79,83.9,96.2,69,118c-9.5,13.8-16.8,29.2-23.7,44.4c-4.8,10.5-7.5,21.8-10.5,32.9c-2,7.1-3.3,14.4-3.8,21.8
		c-0.7,15.2-1,30.5-0.6,45.8c0.2,13.2,1.3,26.3,3.2,39.4c2,13.1,5.3,26.1,8.9,39c2.1,7.6,5.8,14.9,8.7,22.3l1.7-0.8
		C51.7,358,50.5,353.1,49,348.3z M403.1,128.1c25.9,24.1,47.2,52.8,62.9,84.5c10.4,20.9,17.5,43.3,20.9,66.4
		c3.2,23.1,3.5,46.4-1.8,69.7c-7.4,32.2-24.8,58.4-48.7,81.7c-14,13.4-29.3,25.4-45.8,35.6c-4.4,2.8-9,5.1-13.5,7.7
		c0.3,0.6,0.5,1.2,0.8,1.9c10.8-3.8,21.6-7.3,32.3-11.4c37.5-14.5,68.4-37.2,92.5-68.1c11.9-15.3,21.7-32.2,27-50.5
		c5.8-20.3,4.5-41.2,1.8-62.1c-3.2-24.9-10.5-48.8-20.7-71.6c-13.6-30.5-30.5-59.4-54.2-83.9c-6.9-7.2-16.7-12.1-25.7-17
		c-17.5-9.5-37.1-13.8-56.7-17.4c-4.1-0.8-8.5-0.8-13.7-1.2C375.5,104.9,390.1,115.8,403.1,128.1L403.1,128.1z M371.8,299.3
		c5.7-18.3,0-35.8-14.6-50.6c-14.9-15-32.6-25.1-53.4-29.1c-32.4-6.1-60-0.2-78.2,29.3c-14.7,23.7-6.9,53.4,20.1,69.6
		c22.8,13.8,48.3,19.7,75.2,19.9C353.8,340.1,364.4,323.1,371.8,299.3z M391.4,281.5c2.3-31.9-12-58-33.8-80.9
		c-19.5-20.5-43.5-34.7-70.8-42.9c-13.6-4.1-28.5-4.6-42.9-6.5c-6-0.8-10.9,1.9-14.1,6.5c-9.2,13.3-17.7,26.7-23.5,42
		c-7.2,18.9-9.1,38-9,57.7c0.2,23.2,6.8,45,20.5,63.8c10.6,14.5,26,24.2,44.5,30c21.5,6.8,41.5,2.6,61.7-3.5
		c0.9-0.3,1.8-0.8,2.5-1.3c0.4-0.2,0.5-0.7,1.7-2.5c-5.8,0-10.6,0.1-15.5,0c-18.9-0.4-36.6-5.4-53.8-12.4
		c-17-6.9-31.4-17.2-39.7-33.1c-8.7-16.8-8.5-33.9,0.9-50.9c8.5-15.4,22.3-25.3,38.5-30.8c10.3-3.5,22.4-3.7,33.6-3.2
		c22.1,1,40.9,10.9,58.1,23.3c15.4,11.1,26.3,26,28.3,44.5c1,8.6-2.7,18-5.4,26.7c-1.8,6-5.4,11.4-8.2,17.1
		C381.4,314.5,390.1,299.5,391.4,281.5z M430.7,277.9c4.7-15.5,5.4-39.5,3.2-57.7c-2.3-19.3-7.9-38-16.6-55.4
		c-7.7-15.1-17.9-28.9-30.3-40.5c-12.1-11.6-25.3-21.8-40.5-29.5c-2-1-4.7-2.2-6.6-1.7c-14.6,3.6-29.2,7.7-43.7,11.6
		c-0.8,0.2-1.4,1-2.7,2.1C375.3,137.3,421.4,193.3,430.7,277.9L430.7,277.9z M275.4,486.2c-40-5.2-78-16.2-113.7-34.1
		c-35.6-17.8-68.1-39.1-93.5-69.5C83.8,434.7,204.1,494.6,275.4,486.2z M90.8,421.9c1.7,8.6,32.2,33.9,48.7,43.3
		c63.3,36,135.9,35.7,171.2,25C228,496,153.8,476.5,90.8,421.9z M537.9,301.9c4.5-64-15-119.1-65.9-162.4
		C507.7,188.6,531.7,242,537.9,301.9L537.9,301.9z"/>
	<path class="st0" d="M145.1,426.7c-0.5-0.7-1-1.4-1.6-2.1c-5.6-7.3-11.9-14.1-16.8-21.9c-12.1-18.7-19.8-39.9-22.5-62
		c-1.5-12.4-1.9-24.8-1.2-37.2c0.6-10.6,3.4-21,5.1-31.5c0.3-2.2,0.1-4.4-0.6-6.5c-14.5-39.1-15.2-78.9-5.5-119
		c5.6-23.1,14.2-44.8,30.6-62.8C143.7,71.5,156.2,61.4,171,54c21.5-10.7,44.6-13.9,68.2-14.3c4.3-0.1,8.5-0.9,12.4-2.4
		c21.4-8.5,43.4-14,66.5-14.2c33.1-0.3,63.6,9.2,92,25.5c23.2,13.3,43.1,30.6,61.2,50.1c15.3,16.4,27.6,35.1,38,54.7
		c7.3,13.9,12.6,28.9,17.6,43.9c8.6,25.5,11.8,52.5,9.4,79.3c-3.2,34.5-13.2,66.7-30.9,96.9c-25.1,42.7-57.1,77.2-102.6,98.3
		C353.4,494.6,302,499,249.4,487.1C191.9,474,144.2,443.2,103.7,401C76,372.3,54.9,337.9,41.8,300.2c-11.3-32.4-16.1-65.5-11.5-99.8
		c3.3-24.1,12.3-46.3,24.1-67.1C74.8,97.3,99.6,65,133,39.8c23.2-17.5,48.6-26.3,77.7-23.1c1.5,0.3,2.9,0.8,4.3,1.4l-0.2,1.4
		c-2,0.1-4,0.2-5.9,0.5c-11,1.8-22.2,2.7-32.8,5.6c-19.4,5.4-34.2,18.8-49.2,31.2c-20.4,16.8-36.3,37.7-50.7,59.6
		c-6.3,9.6-10.3,20.8-15.5,31.2C44,181.1,37.2,216.3,43.3,253.5c2.3,14.1,5.5,28.1,9.5,41.9c3.8,12.6,8.2,25.2,14.3,36.8
		c7.6,14.5,16.4,28.4,26.3,41.5c10,13.2,21.7,25,32.9,37.2c2.8,3,6.4,5.2,9.4,8s5.6,5.9,8.4,8.9L145.1,426.7z M132.4,234.1
		c-7.8,13.9-5.3,27.5-3.3,41.2c1.6,10.8,8.9,19.5,15.4,28.2c22.6,30.7,52.1,52.6,87.4,66.6c22.9,9.1,47.1,14.1,71.7,14.9
		c24.5,0.8,48.4-1.8,71.6-9.8c27-9.3,49.7-25,66.9-47.6c16.4-21.5,25-46.3,24-73.7c-0.9-25.9-8.6-50.1-20.9-73
		c-8.5-15.9-19.5-29.8-31.4-43.3c-24.7-27.9-55.1-46.7-90.3-57.8c-25.7-8.1-52-11.1-78.9-5.7c-22.4,4.6-39.4,17.3-53,35.1
		c-13.1,17.2-20.3,42.7-21.6,63.3c3.3-2.6,6-4.9,8.8-7.1c17.6-13.7,37.9-21.8,58.9-28.6c20.8-6.8,41.9-8.6,63.1-4.7
		c24.9,4.5,48.2,13.1,64.7,34.1c12.4,15.8,15.7,33.4,10.5,52.8c-6.3,23.4-20.9,40.9-40,54.9c-18.7,13.7-39.2,23.5-62.5,25.8
		c-30.7,3.1-57.2-6.4-79.2-28.1c-21.7-21.5-31.1-48.3-34-78c-0.1-0.6-0.1-1.1-0.3-2.7C150,204.7,140.8,219.1,132.4,234.1z
		 M120.4,359.5c4.1,14.6,12,27.6,19.7,40.6c7.1,12,16.4,22,26.1,31.5c15.8,15.5,34.3,27.1,54.8,36.1c18,7.9,36.6,12,55.8,13.5
		c27,2.1,53.8-0.6,80.3-6.1c16.2-3.4,32.4-7.2,48.5-11.2c11.7-2.9,21.1-10.3,30.7-17.2c29.4-21.2,49.9-49.6,67.6-80.7
		c11.6-20.4,19.2-41.9,24-64.5c7.4-35.3,5-70.2-6-104.4c-3.5-10.7-7.2-21.6-12.3-31.6C485.5,118,452.1,78.8,405.2,52.3
		c-24.5-14-51.8-22.2-79.9-24.1c-22.4-1.5-44.7,2.4-65.3,11.3c-0.8,0.4-1.6,0.9-2.4,1.4c8,1.3,15.1,2.3,22.2,3.7
		c32.6,6.3,64.3,16.5,94.3,30.6c25.6,12.1,49.7,26.6,71.1,45.4c27.9,24.5,48.9,53.7,61.5,89c10.1,28.2,10.4,56.4,2.1,84.7
		c-2.7,9.4-7,18.4-11.6,27.1c-31.8,60.2-82,95-148.7,106.4c-46.8,7.9-92.1,2.5-134.6-19.3c-35.5-18.2-63.6-44.5-81.3-81
		c-5.6-11.5-10.2-23.2-12.9-35.6c-0.5-2.4-1.9-4.6-3.2-7.8C112.2,308.9,113.5,334.8,120.4,359.5L120.4,359.5z M190.7,164.2
		c-6.1,4.3-12,8.9-17.6,13.9c-1.8,1.8-2.9,4.2-3,6.8c0.3,15.4,3.2,30.3,10,44.3c11.6,24.1,25.8,45.8,51.5,57.1
		c16.1,7.1,32.9,10.6,50.3,6.9c35.9-7.7,64.4-26.6,82-59.4c17.1-31.9,5.8-65.3-26.6-82.8c-18-9.6-37.3-13.4-57.9-14.4
		C247.2,136.8,217.4,145.4,190.7,164.2L190.7,164.2z M138.4,209c6.6-9,13.7-17.6,20.1-26.8c1.6-2.4,1.7-6,1.9-9.1
		c2.1-26.8,10.7-51.2,28.5-71.6c16.1-18.5,36.7-29.2,61-33.1c29.3-4.7,57.5,0.2,85.1,9.8c19.5,6.8,37.7,16.8,54,29.4
		c9.7,7.5,19.4,15.2,27.6,24.3c28,30.7,48.7,65.5,54.4,107.5c3.9,28.4-1.4,55.1-16.7,79.8c-19.9,31.9-49.2,51-84.1,62.6
		c-25.8,8.6-52.4,10.4-79.4,9.1c-29.4-1.2-58.3-8.4-84.8-21.2c-20.4-9.8-38.8-23.1-54.5-39.3c-1.3-1.3-2-3.2-3-4.8l-2,1.7
		c1.7,3,3.2,6,5,8.9c18.9,29.8,44.7,51.5,76.4,66.8c20.1,9.7,41.7,16.1,63.9,19c32.1,4.2,63.7,1.4,94.4-9.2
		c24-8.3,45-21.8,63.7-38.9c14.3-13.1,27-27.7,36.5-44.7c10.3-18.5,17.9-38,20.5-59.2c0.5-3.9,1.8-7.7,1.8-11.5
		c0.1-41.6-15.8-76.9-42.2-108.3c-29.6-35.2-67.1-58.7-108.8-76.5c-28-12-57.1-20.1-87-25.7c-5.8-1.1-11.7-1.5-17.5-2.4
		c-6.7-1-11.7,3-16.7,6.1c-32.8,19.7-59.4,48.1-76.8,82.1c-13.7,26.4-24.5,54-29.1,83.7c-0.3,1.3-0.8,2.5-1.4,3.7l1.1,0.6
		C132.9,217.4,135.4,213,138.4,209z M119.2,216.5c2.2-13.8,5.4-27.2,11.3-40.1c6-13.2,11.1-26.8,16.6-40.2c0.4-1.1,0.8-2.1,1.2-3.1
		c20.4-37.4,48.5-67.4,86.4-87.6c0.3-0.1,0.5-0.4,0.7-1.5c-5.2,0.3-10.4,0.5-15.5,0.8c-25.4,2-48.2,10.6-67.3,27.7
		c-5.6,4.9-10.2,11-15,16.7c-10.2,12.5-17.3,27.2-20.7,43c-3.6,16-6.4,32.1-8.2,48.4c-2.3,21.3-0.5,42.9,5.4,63.5
		c0.2,0.5,0.4,1,1.2,2.9C116.7,235.9,117.7,226.1,119.2,216.5L119.2,216.5z M383.2,474.8c-16.5,3.2-32.1,6.7-47.8,9
		s-31.8,3.2-46.9,4.7C320.4,490.6,351.9,486.9,383.2,474.8z"/>
</g>
</svg>
