<?xml version="1.0" encoding="utf-8"?>
<!-- Generator: Adobe Illustrator 22.1.0, SVG Export Plug-In . SVG Version: 6.00 Build 0)  -->
<svg version="1.1" id="Layer_1" xmlns="http://www.w3.org/2000/svg" xmlns:xlink="http://www.w3.org/1999/xlink" x="0px" y="0px"
	 viewBox="0 0 664 513" style="enable-background:new 0 0 664 513;" xml:space="preserve">
<style type="text/css">
	.st0{fill:#62DD73;}
</style>
<title>Resources</title>
<g>
	<path class="st0" d="M600.2,21.2H63.8c-19.7,0-35.6,16-35.6,35.6v341.5c0,19.7,16,35.6,35.6,35.6H199v39.8h-53.5v21h375.1v-20.9
		H465V434h135.2c19.7,0,35.6-16,35.6-35.6V56.8C635.8,37.2,619.9,21.3,600.2,21.2z M444.1,473.8H219.9V434h224.2L444.1,473.8
		L444.1,473.8z M614.9,398.4c0,8.1-6.6,14.7-14.7,14.7H63.8c-8.1,0-14.7-6.6-14.7-14.7V56.8c0-8.1,6.6-14.7,14.7-14.7h536.4
		c8.1,0,14.7,6.6,14.7,14.7V398.4z"/>
	<path class="st0" d="M550.9,65.2H113.1c-19.7,0-35.6,16-35.6,35.6v217.9c0,19.7,16,35.6,35.6,35.6h437.8c19.7,0,35.6-16,35.6-35.6
		V100.8C586.5,81.2,570.5,65.3,550.9,65.2z M565.5,318.8c0,8.1-6.6,14.7-14.7,14.7H113.1c-8.1,0-14.7-6.6-14.7-14.7v-218
		c0-8.1,6.6-14.7,14.7-14.7h437.8c8.1,0,14.7,6.6,14.7,14.7L565.5,318.8L565.5,318.8z"/>
	<path class="st0" d="M363.9,373.2H300c-5.8,0-10.5,4.7-10.5,10.5s4.7,10.5,10.5,10.5l0,0h63.9c5.8,0,10.5-4.7,10.5-10.5
		S369.7,373.2,363.9,373.2z"/>
	<path class="st0" d="M288.5,209.8H153.4c-5.8-0.2-10.6,4.4-10.8,10.2s4.4,10.6,10.2,10.8c0.2,0,0.4,0,0.6,0h135.1
		c5.8-0.2,10.3-5,10.2-10.8C298.5,214.4,294,210,288.5,209.8z"/>
	<path class="st0" d="M514.8,209.8H379.7c-5.8,0.2-10.3,5-10.2,10.8c0.2,5.5,4.6,10,10.2,10.2h135.1c5.8,0.2,10.6-4.4,10.8-10.2
		s-4.4-10.6-10.2-10.8C515.2,209.8,515,209.8,514.8,209.8L514.8,209.8z"/>
	<path class="st0" d="M288.5,272.7H153.4c-5.8-0.2-10.6,4.4-10.8,10.2c-0.2,5.8,4.4,10.6,10.2,10.8c0.2,0,0.4,0,0.6,0h135.1
		c5.8-0.2,10.3-5,10.2-10.8C298.5,277.3,294,272.8,288.5,272.7z"/>
	<path class="st0" d="M514.8,272.7H379.7c-5.8,0.2-10.3,5-10.2,10.8c0.2,5.5,4.6,10,10.2,10.2h135.1c5.8,0.2,10.6-4.4,10.8-10.2
		s-4.4-10.6-10.2-10.8C515.2,272.7,515,272.7,514.8,272.7L514.8,272.7z"/>
</g>
</svg>
