<?xml version="1.0" encoding="utf-8"?>
<!-- Generator: Adobe Illustrator 22.1.0, SVG Export Plug-In . SVG Version: 6.00 Build 0)  -->
<svg version="1.1" id="Layer_1" xmlns="http://www.w3.org/2000/svg" xmlns:xlink="http://www.w3.org/1999/xlink" x="0px" y="0px"
	 viewBox="0 0 574.9 513" style="enable-background:new 0 0 574.9 513;" xml:space="preserve">
<style type="text/css">
	.st0{fill:#62DD73;}
</style>
<title>Resources</title>
<g>
	<path class="st0" d="M517.5,86.1h-49.2V30.2c0-5-4-9-9-9H194.5c-5,0-9,4-9,9V86h-129c-16.9,0-30.6,13.7-30.6,30.6v293.6
		c0,16.9,13.7,30.6,30.6,30.6h116.2V475h-45.9v18h322.4v-18h-47.7v-34.2h116.2c16.9,0,30.6-13.7,30.6-30.6V116.7
		C548.2,99.8,534.5,86.1,517.5,86.1z M432.3,39.2h18v21.6h-18V39.2z M432.3,78.9h18v9h-18V78.9z M432.3,105.9h18v32.4h-18V105.9z
		 M432.3,156.3h18v9h-18V156.3z M432.3,183.3h18v34.2h-18V183.3z M432.3,235.5h18v9h-18V235.5z M432.3,262.5h18V286h-18V262.5z
		 M221.6,138.3h-18v-32.4h18V138.3z M221.6,165.3h-18v-9h18V165.3z M221.6,217.5h-18v-34.2h18V217.5z M203.6,235.5h18v9h-18V235.5z
		 M221.6,87.8h-18v-9h18V87.8z M203.6,262.5h18V286h-18V262.5z M203.6,39.2h18v21.6h-18V39.2z M194.6,304h169.3v-18H239.6V39.2
		h174.7V286h-16.2v18h61.2c5,0,9-4,9-9V141.9h6.8c7,0,12.6,5.6,12.6,12.6v187.3c0,7-5.6,12.6-12.6,12.6H98.9
		c-7,0-12.6-5.7-12.6-12.6V154.5c0-7,5.6-12.6,12.6-12.6h86.7V295C185.5,300,189.6,304,194.6,304L194.6,304z M383.4,475.1H190.7
		v-34.2h192.7V475.1z M530.2,410.3c0,7-5.7,12.6-12.6,12.6H56.5c-7,0-12.6-5.7-12.6-12.6V116.7c0-7,5.7-12.6,12.6-12.6h129.1v19.8
		H98.9c-16.9,0-30.6,13.7-30.6,30.6v187.3c0,16.9,13.7,30.6,30.6,30.6h376.3c16.9,0,30.6-13.7,30.6-30.6V154.5
		c0-16.9-13.7-30.6-30.6-30.6h-6.8v-19.8h49.2c7,0,12.6,5.6,12.6,12.6L530.2,410.3L530.2,410.3z"/>
	<path class="st0" d="M314.5,388.6h-54.9c-5,0-9,4-9,9s4,9,9,9h54.9c5,0,9-4,9-9S319.4,388.6,314.5,388.6L314.5,388.6z"/>
	<polygon class="st0" points="270.2,107.7 270.2,228.4 390.9,168.4 	"/>
	<path class="st0" d="M157.8,248.2h-44.1c-5,0-9,4-9,9c0,5,4,9,9,9h44.1c5,0,9-4,9-9C166.8,252.2,162.7,248.2,157.8,248.2z"/>
	<path class="st0" d="M157.8,284.2h-44.1c-5,0-9,4-9,9s4,9,9,9h44.1c5,0,9-4,9-9S162.7,284.2,157.8,284.2z"/>
	<path class="st0" d="M157.8,320.2h-44.1c-5,0-9,4-9,9s4,9,9,9h44.1c5,0,9-4,9-9S162.7,320.2,157.8,320.2z"/>
</g>
</svg>
