<?xml version="1.0" standalone="no"?>
<!DOCTYPE svg PUBLIC "-//W3C//DTD SVG 20010904//EN"
 "http://www.w3.org/TR/2001/REC-SVG-20010904/DTD/svg10.dtd">
<svg version="1.0" xmlns="http://www.w3.org/2000/svg"
 width="568.000000pt" height="568.000000pt" viewBox="0 0 568.000000 568.000000"
 preserveAspectRatio="xMidYMid meet">
<metadata>
Created by potrace 1.11, written by Peter Selinger 2001-2013
</metadata>
<g transform="translate(0.000000,568.000000) scale(0.100000,-0.100000)"
fill="#000000" stroke="none">
<path d="M1875 5284 c-16 -3 -55 -10 -85 -16 -30 -7 -57 -12 -60 -13 -71 -14
-240 -94 -333 -156 -155 -105 -387 -322 -515 -484 -35 -44 -71 -89 -80 -100
-67 -83 -225 -334 -299 -475 -88 -168 -173 -403 -188 -520 -2 -17 -6 -43 -9
-58 -7 -35 -20 -148 -31 -259 -3 -34 -8 -72 -11 -85 -2 -13 -5 -60 -5 -105 0
-50 -4 -83 -10 -83 -9 0 -7 -52 6 -140 2 -14 7 -52 10 -85 4 -33 8 -71 10 -85
2 -14 7 -52 11 -85 3 -33 8 -67 9 -75 2 -9 7 -43 11 -75 4 -33 8 -62 9 -65 1
-3 5 -25 9 -50 15 -87 57 -240 92 -340 74 -209 164 -363 393 -670 140 -188
419 -419 663 -548 242 -128 642 -243 928 -267 159 -14 438 -6 507 14 17 5 33
7 36 5 2 -3 24 0 48 5 24 5 64 13 89 16 24 4 48 8 51 11 9 5 60 13 184 28 17
2 49 7 73 11 23 4 52 8 65 10 102 13 282 66 672 197 170 57 397 166 550 265
55 36 105 70 110 76 6 7 30 28 55 48 108 87 210 203 297 335 78 121 124 230
179 429 51 183 73 297 89 455 4 36 9 76 11 90 9 60 2 384 -10 447 -3 11 -8 43
-11 70 -4 26 -20 102 -35 168 -16 66 -34 145 -40 175 -17 78 -75 256 -125 385
-159 412 -425 772 -790 1068 -285 231 -630 395 -925 441 -19 3 -57 8 -85 12
-64 10 -313 11 -387 2 -77 -10 -199 -35 -278 -58 -46 -13 -99 -19 -177 -19
-111 0 -320 -10 -352 -16 -9 -1 -45 -6 -81 -10 -36 -4 -74 -9 -85 -11 -11 -2
-45 -8 -75 -14 -79 -15 -262 -65 -291 -80 -13 -8 -25 -13 -26 -12 -19 11 -358
-151 -467 -223 -38 -25 -71 -43 -73 -41 -9 9 294 268 395 338 105 72 201 117
297 138 75 17 78 18 136 25 30 4 56 8 59 10 3 2 37 6 75 10 80 8 99 18 58 32
-29 10 -195 14 -248 7z m1555 -138 c47 -9 96 -18 110 -22 14 -3 36 -7 50 -10
121 -24 403 -147 550 -240 70 -45 219 -150 230 -163 3 -3 28 -24 55 -46 65
-52 217 -204 280 -280 28 -33 56 -66 63 -73 27 -30 153 -212 206 -300 58 -95
131 -236 161 -307 9 -22 23 -55 31 -73 25 -57 16 -48 -56 61 -72 109 -177 223
-329 358 -46 41 -89 79 -95 84 -6 6 -49 44 -96 85 -47 41 -87 77 -90 80 -6 7
-147 129 -180 156 -14 12 -59 50 -100 85 -89 76 -172 139 -255 193 -70 45
-284 156 -303 156 -7 0 -20 4 -30 10 -9 5 -84 35 -165 65 -144 54 -282 93
-402 114 -33 6 -71 13 -85 16 -37 8 -101 17 -132 19 -41 3 -43 13 -6 20 18 3
44 9 58 12 119 25 392 26 530 0z m-856 -45 c-19 -18 -115 -42 -183 -46 -206
-14 -275 -21 -351 -36 -30 -6 -59 -12 -65 -13 -48 -9 -206 -68 -273 -102 -153
-79 -323 -220 -433 -359 -100 -128 -205 -364 -249 -561 -6 -26 -36 -82 -74
-137 -236 -342 -460 -865 -469 -1094 0 -7 -4 -10 -7 -8 -7 4 -18 60 -46 230
-13 76 -11 333 3 427 18 124 54 263 96 373 34 89 158 366 177 395 5 8 16 29
24 47 19 41 102 165 190 282 101 134 258 252 491 366 96 47 280 121 325 130 8
2 35 8 60 15 25 7 52 13 60 15 8 2 33 8 55 14 22 5 87 17 145 26 58 9 115 18
126 20 12 2 61 6 110 10 49 4 90 8 91 9 8 6 204 4 197 -3z m316 -16 c3 -2 27
-6 53 -9 67 -9 132 -22 202 -40 85 -23 388 -126 403 -138 6 -6 12 -8 12 -5 0
20 398 -187 457 -238 7 -5 36 -26 64 -45 68 -46 188 -142 258 -207 112 -103
21 -72 -184 63 -66 44 -142 92 -170 107 -88 49 -348 173 -420 202 -38 15 -83
33 -100 40 -130 56 -539 169 -725 199 -36 6 -99 16 -128 20 -30 5 -15 20 45
43 50 20 69 22 143 17 47 -3 87 -7 90 -9z m-540 -86 c0 -5 -4 -9 -10 -9 -5 0
-25 -10 -44 -22 -19 -13 -63 -41 -98 -63 -99 -62 -223 -160 -310 -246 -20 -20
-76 -57 -125 -81 -172 -87 -334 -207 -527 -390 -33 -32 -62 -56 -63 -54 -2 2
6 33 17 69 93 302 350 592 620 701 25 11 59 25 75 32 17 7 42 15 55 18 14 3
52 12 85 20 33 8 94 18 135 22 41 3 76 7 77 8 8 6 113 2 113 -5z m245 -14 c45
-5 100 -14 190 -31 79 -14 293 -69 410 -104 252 -77 496 -180 730 -308 103
-56 110 -64 44 -47 -30 8 -79 19 -109 25 -30 6 -66 12 -80 15 -33 7 -109 16
-139 17 -13 0 -65 20 -115 43 -51 24 -137 59 -192 78 -54 19 -128 49 -164 66
-36 17 -101 44 -145 60 -44 16 -92 34 -106 39 -14 6 -31 7 -38 2 -9 -5 5 -14
40 -25 30 -10 59 -20 64 -24 6 -3 12 -6 15 -7 3 0 13 -4 23 -7 9 -4 25 -10 35
-14 9 -3 20 -5 25 -5 4 1 7 -3 7 -9 0 -6 -8 -8 -17 -5 -17 4 -45 10 -102 21
-135 25 -416 21 -519 -9 -9 -3 -47 -7 -85 -11 -37 -3 -73 -8 -80 -10 -6 -2
-30 -7 -52 -10 -44 -6 -149 -30 -180 -40 -31 -11 48 62 140 131 165 121 281
185 328 178 12 -1 45 -5 72 -9z m260 -263 c-3 -3 -11 0 -18 7 -9 10 -8 11 6 5
10 -3 15 -9 12 -12z m-105 -6 c137 -20 194 -30 281 -52 99 -24 255 -76 299
-99 24 -13 24 -13 -30 -29 -30 -8 -66 -17 -80 -20 -91 -15 -232 -57 -299 -89
-32 -16 -256 -13 -256 3 0 8 -108 14 -235 15 -138 0 -179 -3 -283 -21 -38 -6
-157 -32 -187 -41 -24 -6 -24 -6 8 35 89 111 250 221 395 266 9 3 18 6 20 7 1
0 36 8 77 18 75 17 200 20 290 7z m210 -1 c48 -7 95 -16 135 -27 22 -5 51 -12
64 -15 14 -2 28 -6 33 -9 4 -3 16 -7 25 -9 54 -12 207 -72 210 -82 3 -8 -25 0
-65 17 -59 25 -259 80 -352 97 -14 2 -48 10 -77 17 -28 8 -54 11 -57 8 -3 -3
-6 0 -6 6 0 8 11 10 33 6 17 -3 43 -7 57 -9z m-731 -28 c-2 -2 -29 -16 -59
-31 -116 -59 -234 -160 -325 -278 -31 -39 -68 -65 -139 -97 -41 -18 213 302
276 348 29 21 274 78 247 58z m-474 -169 c-74 -92 -140 -183 -197 -274 -47
-76 -79 -114 -128 -154 -68 -55 -228 -214 -293 -290 -23 -28 -36 -37 -32 -25
2 11 7 40 11 65 9 63 11 78 24 140 6 30 13 61 14 68 4 21 192 207 281 279 93
74 184 136 275 186 36 20 66 37 68 37 2 0 -8 -15 -23 -32z m1745 -37 c156 -79
383 -271 512 -431 156 -195 272 -460 315 -720 20 -119 25 -413 10 -520 -12
-89 -37 -167 -35 -112 2 64 -53 315 -102 461 -165 495 -495 857 -1010 1111
-41 21 -100 48 -130 60 -108 44 -122 52 -113 61 8 8 191 61 283 82 37 9 34 8
102 28 72 21 92 18 168 -20z m280 24 c14 -2 34 -6 45 -8 26 -6 99 -19 105 -19
3 0 16 -5 30 -10 14 -5 32 -11 40 -13 109 -22 201 -75 357 -205 71 -59 231
-215 294 -286 126 -145 261 -363 330 -535 81 -203 125 -494 97 -637 -5 -26
-11 -63 -14 -82 -10 -75 -51 -233 -74 -285 -5 -11 -20 -47 -34 -80 -14 -33
-34 -78 -44 -100 l-20 -39 -1 144 c-1 80 -3 157 -5 173 -3 15 -7 55 -11 90 -4
34 -11 85 -17 112 -5 28 -12 62 -14 77 -3 15 -16 66 -30 115 -14 48 -26 93
-28 100 -1 7 -5 16 -9 19 -4 4 -7 15 -7 24 0 18 -64 171 -109 260 -15 30 -34
73 -41 95 -21 65 -105 239 -156 323 -179 291 -408 529 -691 718 -101 68 -101
68 7 49z m-1160 -98 c14 -3 48 -8 75 -12 106 -14 105 -12 49 -61 -27 -24 -52
-44 -55 -44 -3 0 -17 -10 -31 -23 -13 -12 -62 -53 -110 -90 -77 -61 -98 -72
-217 -113 -239 -81 -401 -162 -537 -266 -97 -75 -93 -74 -88 -31 4 36 6 54 20
141 15 97 118 354 162 405 15 17 145 63 210 73 19 3 44 8 56 10 11 3 46 7 76
10 30 3 56 7 58 9 5 5 303 -3 332 -8z m1415 -230 c52 -49 95 -92 95 -96 0 -4
-30 22 -67 57 -38 35 -90 83 -117 106 -27 22 -67 58 -90 80 -36 34 -34 33 22
-9 34 -27 105 -88 157 -138z m-1024 139 c102 -38 206 -90 327 -164 114 -69
252 -170 252 -183 0 -5 6 -9 13 -9 22 0 268 -260 301 -319 5 -9 12 -18 15 -21
34 -29 165 -269 209 -385 95 -248 127 -422 125 -680 -1 -120 -3 -136 -32 -211
-71 -184 -194 -400 -312 -549 -42 -53 -55 -63 -120 -87 -306 -112 -692 -143
-1044 -82 -49 8 -92 17 -95 19 -4 2 -22 7 -41 10 -108 18 -357 112 -504 190
-77 41 -270 168 -324 212 -106 89 -268 263 -369 398 -68 91 -66 85 -68 259 -3
161 6 238 41 376 20 81 76 234 87 238 4 2 8 9 8 16 0 7 26 53 57 101 55 85 57
87 64 60 5 -15 10 -48 13 -74 26 -230 133 -483 270 -636 20 -22 37 -44 37 -50
1 -5 3 -23 5 -40 2 -16 6 -41 10 -55 3 -14 8 -35 10 -48 11 -58 70 -214 106
-282 101 -190 290 -346 506 -421 212 -73 507 -58 719 37 17 8 34 14 38 14 23
0 367 183 413 220 158 128 240 300 240 507 0 195 -62 403 -168 560 -28 41 -30
50 -23 92 52 323 -168 617 -558 745 -106 34 -122 38 -264 61 -83 13 -276 13
-355 -1 l-44 -7 34 29 c94 81 197 160 229 176 45 24 93 20 192 -16z m1569
-166 c30 -31 75 -80 100 -109 50 -58 199 -267 208 -291 3 -8 11 -22 18 -30 34
-41 178 -329 238 -477 93 -229 167 -515 161 -627 -2 -33 -6 -74 -8 -91 -3 -16
-8 -46 -12 -65 -40 -224 -144 -500 -270 -717 -54 -92 -191 -302 -204 -313 -3
-3 -26 -32 -51 -65 -48 -66 -272 -293 -333 -339 -174 -132 -302 -207 -372
-220 -16 -4 -63 -15 -104 -25 -84 -22 -84 -22 24 49 238 158 458 360 597 545
21 28 41 55 46 60 23 28 113 189 144 260 37 81 76 205 98 305 7 30 27 81 46
113 19 32 34 62 34 67 0 5 3 10 8 12 10 4 88 165 117 242 31 83 54 179 71 296
20 142 7 354 -31 500 -62 238 -204 512 -380 730 -37 47 -122 139 -189 204 -99
98 -111 112 -66 81 30 -21 80 -64 110 -95z m-2822 103 c-1 -5 -17 -37 -34 -73
-61 -127 -104 -290 -119 -449 -3 -41 -11 -84 -17 -95 -17 -32 -150 -211 -160
-214 -4 -2 -8 -8 -8 -13 0 -6 -9 -20 -21 -32 -11 -12 -39 -51 -61 -87 -36 -58
-39 -61 -33 -30 3 19 8 46 11 60 4 28 16 89 19 105 35 162 126 407 231 620 72
144 87 166 135 191 46 24 63 29 57 17z m2303 -146 c13 -12 49 -51 79 -86 30
-35 60 -69 65 -75 38 -41 170 -202 208 -255 92 -124 199 -395 222 -561 3 -25
10 -59 15 -77 9 -34 7 -344 -3 -378 -3 -11 -10 -41 -16 -67 -37 -160 -146
-372 -251 -488 -18 -19 -44 -48 -59 -65 -32 -37 -165 -155 -174 -155 -3 0 16
46 42 103 63 134 69 156 126 486 3 19 19 95 35 170 40 181 43 203 43 376 0
173 -8 253 -37 380 -10 44 -79 253 -98 295 -48 107 -95 192 -164 292 -41 59
-74 112 -74 118 0 16 15 12 41 -13z m-1191 -31 c496 -41 826 -290 845 -638 2
-43 2 -78 0 -78 -2 0 -34 32 -72 71 -173 180 -395 333 -608 418 -171 68 -327
103 -532 117 -48 3 -91 8 -95 11 -4 2 2 17 13 33 20 27 41 36 99 46 14 2 34 6
46 9 11 2 63 7 115 11 52 3 96 8 98 10 2 2 7 2 10 0 3 -2 40 -7 81 -10z
m-1415 -28 c-4 -13 -13 -36 -20 -53 -8 -16 -35 -82 -60 -145 -26 -63 -55 -133
-65 -155 -22 -49 -70 -183 -75 -208 -2 -10 -7 -27 -10 -37 -7 -21 -11 -42 -19
-96 -4 -22 -8 -46 -11 -54 -2 -8 -7 -37 -10 -65 -10 -76 -12 -95 -20 -160 -4
-33 -8 -65 -8 -72 -1 -30 -16 3 -31 64 -31 130 -45 258 -44 412 l1 154 45 66
c94 138 128 179 223 274 55 53 102 97 105 97 3 0 2 -10 -1 -22z m3533 -271
c118 -144 233 -349 282 -498 11 -37 20 -70 19 -75 -1 -5 0 -11 1 -14 4 -12 10
-49 15 -100 3 -30 8 -70 10 -89 4 -35 7 -166 5 -191 -1 -12 -17 42 -35 120 -2
8 -4 15 -5 15 -1 0 -3 7 -5 15 -1 8 -17 58 -35 110 -64 190 -183 453 -271 598
-21 35 -39 66 -39 69 0 6 -80 131 -141 220 -27 39 -49 74 -49 78 0 12 186
-181 248 -258z m-2664 224 c-31 -29 -63 -43 -149 -67 -98 -28 -78 -9 38 36 45
18 91 36 102 40 30 13 31 12 9 -9z m221 -76 c39 -4 77 -8 85 -10 8 -2 40 -7
70 -10 57 -6 221 -47 268 -67 15 -6 29 -12 32 -13 38 -13 162 -72 220 -105
157 -91 294 -205 419 -350 60 -70 63 -75 57 -114 -7 -38 -71 -182 -98 -218
-12 -16 -20 -13 -103 47 -267 191 -511 258 -795 219 -79 -11 -205 -52 -240
-78 -8 -7 -28 -18 -45 -26 -58 -29 -178 -161 -217 -240 -39 -77 -68 -173 -68
-222 0 -15 -4 -28 -9 -28 -5 0 -40 33 -78 74 l-69 74 2 83 c6 345 85 580 302
899 53 79 93 102 162 95 19 -3 67 -7 105 -10z m-316 -46 c-6 -13 -40 -67 -74
-119 -150 -228 -218 -435 -241 -730 -3 -35 -6 -65 -8 -67 -6 -6 -125 236 -145
294 -52 154 -73 331 -45 384 8 16 45 51 82 80 64 48 224 135 267 144 11 2 52
15 90 29 75 26 94 22 74 -15z m-1250 -107 c-8 -52 -18 -155 -24 -237 -1 -22
-20 -78 -42 -125 -58 -123 -111 -273 -127 -356 -2 -11 -8 -37 -14 -59 -6 -22
-13 -62 -17 -90 -4 -27 -9 -63 -12 -80 -8 -57 -10 -400 -2 -435 4 -19 10 -53
13 -75 21 -156 67 -300 147 -459 79 -157 155 -252 307 -385 34 -29 72 -70 84
-90 12 -20 25 -38 28 -41 3 -3 24 -27 45 -55 22 -27 46 -56 53 -63 15 -17 34
-52 28 -52 -3 0 -32 26 -64 58 -32 31 -76 73 -97 92 -35 31 -145 148 -244 260
-102 114 -257 338 -336 485 -21 39 -41 75 -45 80 -47 68 -175 464 -171 530 2
40 44 215 77 317 44 139 209 491 320 681 19 32 34 62 34 67 0 4 4 10 8 12 4 2
18 20 31 41 13 21 25 37 26 35 2 -2 -1 -27 -6 -56z m-22 -404 c0 -21 14 -170
18 -187 1 -9 10 -55 19 -102 9 -47 32 -137 52 -199 39 -123 39 -133 10 -285
-21 -108 -28 -180 -28 -305 0 -127 14 -295 28 -342 3 -10 7 -30 10 -45 9 -54
66 -228 91 -276 13 -27 23 -50 21 -52 -6 -6 -33 20 -79 75 -158 188 -269 455
-306 735 -14 103 -7 361 12 475 2 14 6 43 10 65 3 22 7 47 10 55 2 8 6 26 9
40 15 91 84 313 97 318 5 2 9 12 9 23 0 10 4 19 8 19 5 0 9 -6 9 -12z m2023
-109 c105 -14 251 -62 342 -112 82 -45 214 -143 223 -166 12 -30 -139 -187
-259 -270 -90 -62 -231 -130 -335 -161 -75 -22 -82 -24 -161 -40 -45 -9 -214
-7 -259 4 -108 25 -240 76 -308 119 l-40 26 3 69 c8 168 113 336 279 446 133
88 296 115 515 85z m877 -244 c16 -44 33 -96 37 -115 3 -19 9 -46 12 -60 12
-54 10 -217 -3 -280 -14 -68 -70 -200 -84 -200 -5 0 -9 -6 -9 -14 0 -15 -126
-136 -142 -136 -5 0 4 26 20 58 27 52 39 79 40 92 0 3 10 29 21 58 11 28 19
52 16 52 -2 0 0 12 6 28 42 111 0 287 -102 421 -33 43 -39 58 -31 70 27 39 60
101 87 164 l28 68 37 -63 c20 -35 50 -99 67 -143z m871 58 c30 -97 51 -170 58
-207 2 -10 8 -33 13 -50 52 -160 81 -490 57 -650 -14 -94 -229 -355 -438 -529
-79 -66 -222 -163 -310 -211 -56 -30 -240 -111 -261 -114 -4 -1 -44 -12 -90
-26 -94 -28 -137 -37 -234 -52 -26 -3 -57 -8 -68 -10 -11 -3 -65 -7 -120 -10
l-100 -6 206 105 c327 166 451 259 612 459 6 8 40 34 74 57 207 138 368 317
470 524 31 62 93 220 92 232 0 3 4 29 10 58 28 135 30 337 6 451 -3 14 -7 37
-10 51 -12 55 5 20 33 -72z m-3414 -20 c-4 -21 -9 -47 -10 -58 -1 -11 -3 -20
-4 -20 -2 0 -7 -42 -10 -102 -2 -29 -7 -50 -12 -47 -14 9 -1 162 18 215 21 59
28 63 18 12z m2371 -248 c61 -121 68 -252 20 -390 -70 -201 -158 -296 -309
-335 -60 -15 -101 -18 -213 -15 -76 2 -154 6 -173 10 -19 3 -48 8 -65 10 -145
23 -340 92 -470 168 -82 48 -201 163 -232 227 -24 49 -24 56 4 41 82 -45 256
-78 398 -75 313 7 630 153 870 399 l80 83 31 -34 c16 -18 43 -58 59 -89z
m-3361 -5 c3 -19 8 -46 11 -60 3 -14 7 -35 10 -48 2 -13 8 -38 14 -55 63 -204
70 -237 75 -342 2 -60 7 -119 9 -130 7 -32 19 -104 17 -107 -1 -2 4 -16 10
-33 25 -63 58 -205 49 -211 -5 -3 -9 -4 -9 -2 0 2 -17 47 -39 99 -34 83 -118
386 -119 429 -1 8 -7 49 -15 90 -8 41 -13 87 -12 103 0 15 -1 27 -4 27 -3 0
-7 35 -9 78 -2 42 -5 108 -6 145 -3 70 8 80 18 17z m5060 -164 c1 -81 -1 -149
-6 -152 -4 -3 -8 7 -9 23 0 15 -3 37 -5 48 -5 23 -5 59 0 135 2 30 5 66 5 79
1 13 4 22 7 19 3 -3 6 -72 8 -152z m-3297 -22 c45 -31 59 -49 97 -128 89 -180
209 -278 456 -373 104 -40 232 -77 300 -87 19 -3 53 -8 75 -12 22 -3 91 -6
153 -7 152 -1 149 -15 -15 -61 -121 -34 -176 -41 -313 -40 -127 1 -194 15
-317 67 -98 42 -181 94 -251 160 -56 53 -132 148 -132 166 0 5 -4 11 -9 13
-21 8 -107 216 -126 303 -3 17 -9 39 -12 50 -5 19 -5 19 18 2 13 -10 47 -33
76 -53z m-876 -145 c17 -57 37 -117 45 -133 8 -16 14 -32 14 -37 0 -27 154
-317 196 -368 7 -9 34 -43 59 -76 98 -128 260 -275 428 -388 98 -66 330 -178
457 -222 136 -47 274 -80 385 -91 27 -3 51 -7 53 -9 2 -2 -23 -9 -55 -17 -91
-20 -575 -16 -703 7 -14 2 -41 7 -60 9 -162 25 -306 71 -463 150 l-102 51 -56
90 c-145 231 -220 416 -245 600 -3 28 -8 59 -11 70 -3 11 -6 92 -7 180 -2 172
10 313 26 297 5 -5 23 -56 39 -113z m4124 -181 c-2 -79 -6 -154 -9 -168 -3
-14 -8 -38 -11 -55 -56 -287 -286 -637 -585 -889 -114 -96 -320 -239 -320
-222 0 2 26 24 59 49 77 61 241 225 312 313 274 337 449 684 536 1059 5 22 11
49 12 53 1 1 3 2 5 2 2 0 3 -64 1 -142z m-4801 -124 c172 -368 442 -707 806
-1009 52 -43 100 -83 105 -88 13 -12 -33 11 -65 34 -14 9 -58 38 -98 64 -72
45 -209 146 -266 195 -79 68 -308 282 -376 351 -39 40 -111 233 -135 361 -3
13 -7 34 -10 48 -2 14 -7 43 -10 65 -3 23 -7 51 -10 63 -9 47 12 18 59 -84z
m1037 -80 c206 -186 397 -305 644 -401 85 -34 261 -88 315 -98 14 -2 50 -9 80
-15 30 -6 78 -13 105 -16 28 -3 73 -9 100 -13 59 -8 443 -6 495 3 19 3 51 8
70 10 103 13 220 40 325 75 95 32 96 35 -30 -73 -138 -119 -321 -210 -460
-230 -138 -20 -197 -24 -340 -21 -175 4 -279 19 -437 66 -103 30 -119 37 -233
87 -120 54 -331 207 -445 322 -94 96 -242 284 -257 329 -3 9 -13 24 -21 33 -8
10 -12 25 -8 34 5 13 12 9 35 -22 16 -22 44 -53 62 -70z m3214 -239 c-55 -165
-117 -281 -235 -440 -65 -87 -193 -224 -275 -294 -72 -61 -258 -197 -360 -263
-168 -109 -210 -130 -290 -139 -5 -1 -20 -5 -32 -10 -29 -11 -331 -57 -424
-64 -150 -12 -419 -7 -504 9 -11 2 -41 7 -67 10 -81 11 -233 53 -330 91 -98
39 -272 127 -299 151 -8 8 -19 14 -23 14 -13 0 -100 62 -181 131 -88 73 -95
80 -174 163 l-53 56 73 -31 c78 -34 254 -96 292 -103 12 -3 60 -14 107 -25
162 -38 237 -46 440 -46 147 0 287 8 330 20 8 2 31 6 50 9 47 8 65 11 139 31
36 9 116 18 180 20 112 3 209 11 261 20 14 3 43 7 65 11 22 3 48 7 57 10 19 6
42 10 89 18 76 12 273 77 394 129 279 120 562 338 735 565 14 18 33 43 43 54
9 12 18 26 18 32 1 6 3 4 6 -5 2 -9 -12 -65 -32 -124z m-3843 -488 c121 -104
265 -204 443 -308 110 -64 171 -96 485 -246 231 -111 221 -107 365 -155 72
-24 132 -44 134 -45 48 -30 -353 60 -434 96 -11 5 -47 19 -80 30 -171 56 -420
177 -598 288 -265 167 -442 338 -538 519 l-42 79 105 -105 c57 -58 130 -126
160 -153z m2223 -108 c3 -4 -10 -14 -30 -23 -34 -17 -82 -17 -215 -1 -45 6
-140 26 -140 29 0 6 379 0 385 -5z m-2105 -146 c149 -116 376 -250 563 -332
90 -39 362 -134 418 -145 13 -2 78 -16 144 -30 108 -22 172 -32 260 -42 27 -2
74 -6 235 -19 25 -2 74 -7 110 -11 36 -4 86 -8 112 -8 26 -1 44 -4 40 -8 -14
-12 -159 -22 -337 -23 -245 0 -334 10 -607 70 -250 54 -579 205 -773 354 -93
71 -104 80 -201 175 -103 100 -149 167 -72 104 24 -19 72 -57 108 -85z m1354
-512 c4 -5 -3 -7 -14 -4 -23 6 -26 13 -6 13 8 0 17 -4 20 -9z"/>
</g>
</svg>
