<?xml version="1.0" encoding="UTF-8" standalone="no"?>
<!DOCTYPE svg PUBLIC "-//W3C//DTD SVG 1.1//EN"
 "http://www.w3.org/Graphics/SVG/1.1/DTD/svg11.dtd">
<!-- Generated by graphviz version 2.36.0 (20140111.2315)
 -->
<!-- Title: textInterface Pages: 1 -->
<svg width="238pt" height="328pt"
 viewBox="0.00 0.00 238.00 328.00" xmlns="http://www.w3.org/2000/svg" xmlns:xlink="http://www.w3.org/1999/xlink">
<g id="graph0" class="graph" transform="scale(1 1) rotate(0) translate(4 324)">
<title>textInterface</title>
<polygon fill="white" stroke="none" points="-4,4 -4,-324 234,-324 234,4 -4,4"/>
<!-- textInterface -->
<g id="node1" class="node"><title>textInterface</title>
<polygon fill="none" stroke="black" points="30,-273 30,-319 200,-319 200,-273 30,-273"/>
<text text-anchor="start" x="80.5" y="-304.8" font-family="Times,serif" font-size="14.00">textInterface</text>
<text text-anchor="start" x="38" y="-290.8" font-family="Times,serif" font-size="14.00"> </text>
<text text-anchor="start" x="42" y="-290.8" font-family="Times,serif" font-size="10.00">Located in Estuary/Widgets/Text.hs </text>
<text text-anchor="start" x="50.5" y="-280" font-family="Times,serif" font-size="10.00">Enable to editing PatternChain </text>
</g>
<!-- textPatternChain -->
<g id="node2" class="node"><title>textPatternChain</title>
<polygon fill="none" stroke="black" points="-0.5,-189 -0.5,-235 230.5,-235 230.5,-189 -0.5,-189"/>
<text text-anchor="start" x="67.5" y="-220.8" font-family="Times,serif" font-size="14.00">textPatternChain </text>
<text text-anchor="start" x="37" y="-206.8" font-family="Times,serif" font-size="14.00"> </text>
<text text-anchor="start" x="41" y="-206.8" font-family="Times,serif" font-size="10.00"> Located in Estuary/Widgets/Text.hs </text>
<text text-anchor="start" x="7.5" y="-196" font-family="Times,serif" font-size="10.00"> Enables to editing PatternChain to building editors. </text>
</g>
<!-- textInterface&#45;&gt;textPatternChain -->
<g id="edge1" class="edge"><title>textInterface&#45;&gt;textPatternChain</title>
<path fill="none" stroke="black" d="M115,-272.593C115,-264.118 115,-254.297 115,-245.104"/>
<polygon fill="black" stroke="black" points="118.5,-245.096 115,-235.096 111.5,-245.096 118.5,-245.096"/>
</g>
<!-- textSpecificContainer -->
<g id="node3" class="node"><title>textSpecificContainer</title>
<polygon fill="none" stroke="black" points="29,-95 29,-151 201,-151 201,-95 29,-95"/>
<text text-anchor="start" x="56" y="-136.8" font-family="Times,serif" font-size="14.00">textSpecificContainer</text>
<text text-anchor="start" x="37" y="-122.8" font-family="Times,serif" font-size="14.00"> </text>
<text text-anchor="start" x="41" y="-122.8" font-family="Times,serif" font-size="10.00"> Located in Estuary/Widgets/Text.hs </text>
<text text-anchor="start" x="113.5" y="-112" font-family="Times,serif" font-size="10.00"> </text>
<text text-anchor="start" x="43.5" y="-102" font-family="Times,serif" font-size="10.00"> Enables to editing SpecificPattern </text>
</g>
<!-- textPatternChain&#45;&gt;textSpecificContainer -->
<g id="edge2" class="edge"><title>textPatternChain&#45;&gt;textSpecificContainer</title>
<path fill="none" stroke="black" d="M115,-188.595C115,-180.328 115,-170.72 115,-161.481"/>
<polygon fill="black" stroke="black" points="118.5,-161.298 115,-151.298 111.5,-161.298 118.5,-161.298"/>
</g>
<!-- textGeneralContainer -->
<g id="node4" class="node"><title>textGeneralContainer</title>
<polygon fill="none" stroke="black" points="29,-1 29,-57 201,-57 201,-1 29,-1"/>
<text text-anchor="start" x="54.5" y="-42.8" font-family="Times,serif" font-size="14.00">textGeneralContainer </text>
<text text-anchor="start" x="37" y="-28.8" font-family="Times,serif" font-size="14.00"> </text>
<text text-anchor="start" x="41" y="-28.8" font-family="Times,serif" font-size="10.00"> Located in Estuary/Widgets/Text.hs </text>
<text text-anchor="start" x="113.5" y="-18" font-family="Times,serif" font-size="10.00"> </text>
<text text-anchor="start" x="44" y="-8" font-family="Times,serif" font-size="10.00"> Enables to editing GeneralPattern </text>
</g>
<!-- textSpecificContainer&#45;&gt;textGeneralContainer -->
<g id="edge3" class="edge"><title>textSpecificContainer&#45;&gt;textGeneralContainer</title>
<path fill="none" stroke="black" d="M115,-94.8946C115,-86.2683 115,-76.569 115,-67.3505"/>
<polygon fill="black" stroke="black" points="118.5,-67.2296 115,-57.2296 111.5,-67.2297 118.5,-67.2296"/>
</g>
</g>
</svg>
