<?xml version="1.0" encoding="UTF-8" standalone="no"?>
<!DOCTYPE svg PUBLIC "-//W3C//DTD SVG 1.1//EN"
 "http://www.w3.org/Graphics/SVG/1.1/DTD/svg11.dtd">
<!-- Generated by graphviz version 2.36.0 (20140111.2315)
 -->
<!-- Title: twoStackedPatterns Pages: 1 -->
<svg width="1204pt" height="572pt"
 viewBox="0.00 0.00 1204.00 572.00" xmlns="http://www.w3.org/2000/svg" xmlns:xlink="http://www.w3.org/1999/xlink">
<g id="graph0" class="graph" transform="scale(1 1) rotate(0) translate(4 568)">
<title>twoStackedPatterns</title>
<polygon fill="white" stroke="none" points="-4,4 -4,-568 1200,-568 1200,4 -4,4"/>
<!-- twoStackedPatterns -->
<g id="node1" class="node"><title>twoStackedPatterns</title>
<polygon fill="none" stroke="black" points="688,-517 688,-563 970,-563 970,-517 688,-517"/>
<text text-anchor="start" x="775.5" y="-548.8" font-family="Times,serif" font-size="14.00">twoStackedPatterns</text>
<text text-anchor="start" x="781.5" y="-534.8" font-family="Times,serif" font-size="14.00"> </text>
<text text-anchor="start" x="785.5" y="-534.8" font-family="Times,serif" font-size="10.00">An event handler that </text>
<text text-anchor="start" x="696" y="-524" font-family="Times,serif" font-size="10.00"> returns the two &quot;stacked patterns with liveness control&quot; interface </text>
</g>
<!-- iclcForStacked -->
<g id="node2" class="node"><title>iclcForStacked</title>
<polygon fill="none" stroke="black" points="629.5,-443 629.5,-479 1028.5,-479 1028.5,-443 629.5,-443"/>
<text text-anchor="start" x="788" y="-464.8" font-family="Times,serif" font-size="14.00">iclcForStacked</text>
<text text-anchor="start" x="637.5" y="-450.8" font-family="Times,serif" font-size="14.00"> </text>
<text text-anchor="start" x="641.5" y="-450.8" font-family="Times,serif" font-size="10.00"> A function that takes a pattern chain and an event and binds them in the context of a monad. </text>
</g>
<!-- twoStackedPatterns&#45;&gt;iclcForStacked -->
<g id="edge1" class="edge"><title>twoStackedPatterns&#45;&gt;iclcForStacked</title>
<path fill="none" stroke="black" d="M829,-516.728C829,-508.266 829,-498.523 829,-489.624"/>
<polygon fill="black" stroke="black" points="832.5,-489.331 829,-479.331 825.5,-489.331 832.5,-489.331"/>
</g>
<!-- transformedPatternWidget -->
<g id="node3" class="node"><title>transformedPatternWidget</title>
<polygon fill="none" stroke="black" points="488.5,-349 488.5,-405 807.5,-405 807.5,-349 488.5,-349"/>
<text text-anchor="start" x="575.5" y="-390.8" font-family="Times,serif" font-size="14.00">transformedPatternWidget</text>
<text text-anchor="start" x="520" y="-376.8" font-family="Times,serif" font-size="14.00"> </text>
<text text-anchor="start" x="524" y="-376.8" font-family="Times,serif" font-size="10.00">A function that takes a TransformedṔattern and an event and &#160;</text>
<text text-anchor="start" x="522.5" y="-366" font-family="Times,serif" font-size="10.00"> binds them in a dynamic container in the context of a monad </text>
<text text-anchor="start" x="496.5" y="-356" font-family="Times,serif" font-size="10.00"> Returns an interface where parameters and transformations can be selected</text>
</g>
<!-- iclcForStacked&#45;&gt;transformedPatternWidget -->
<g id="edge2" class="edge"><title>iclcForStacked&#45;&gt;transformedPatternWidget</title>
<path fill="none" stroke="black" d="M791.056,-442.81C769.545,-433.065 741.971,-420.572 716.782,-409.161"/>
<polygon fill="black" stroke="black" points="718.179,-405.951 707.626,-405.013 715.29,-412.328 718.179,-405.951"/>
</g>
<!-- patternCombinatorDropDown -->
<g id="node4" class="node"><title>patternCombinatorDropDown</title>
<polygon fill="none" stroke="black" points="825.5,-349 825.5,-405 1196.5,-405 1196.5,-349 825.5,-349"/>
<text text-anchor="start" x="929" y="-390.8" font-family="Times,serif" font-size="14.00">patternCombinatorDropDown</text>
<text text-anchor="start" x="886" y="-376.8" font-family="Times,serif" font-size="14.00"> </text>
<text text-anchor="start" x="890" y="-376.8" font-family="Times,serif" font-size="10.00">A function that takes a PatternCombinator and an event and </text>
<text text-anchor="start" x="885.5" y="-366" font-family="Times,serif" font-size="10.00"> binds them in a dynamic container in the context of a monad </text>
<text text-anchor="start" x="833.5" y="-356" font-family="Times,serif" font-size="10.00"> Returns the options of merging, adding, subtracting, multiplying and dividing patterns</text>
<text text-anchor="start" x="753.5" y="-409.3" font-family="Times,serif" font-size="14.00">eitherWidget</text>
</g>
<!-- iclcForStacked&#45;&gt;patternCombinatorDropDown -->
<g id="edge3" class="edge"><title>iclcForStacked&#45;&gt;patternCombinatorDropDown</title>
<path fill="none" stroke="black" d="M867.153,-442.81C888.784,-433.065 916.51,-420.572 941.838,-409.161"/>
<polygon fill="black" stroke="black" points="943.365,-412.312 951.045,-405.013 940.49,-405.93 943.365,-412.312"/>
</g>
<!-- dropdownPatternWidget -->
<g id="node5" class="node"><title>dropdownPatternWidget</title>
<polygon fill="none" stroke="black" points="354.5,-255 354.5,-311 621.5,-311 621.5,-255 354.5,-255"/>
<text text-anchor="start" x="421" y="-296.8" font-family="Times,serif" font-size="14.00">dropdownPatternWidget</text>
<text text-anchor="start" x="370" y="-282.8" font-family="Times,serif" font-size="14.00"> </text>
<text text-anchor="start" x="374" y="-282.8" font-family="Times,serif" font-size="10.00"> A function that takes a SpecificPattern and an event and </text>
<text text-anchor="start" x="362.5" y="-272" font-family="Times,serif" font-size="10.00"> binds them in a dynamic container in the context of a monad </text>
<text text-anchor="start" x="363.5" y="-262" font-family="Times,serif" font-size="10.00"> Returns a dropdown menu where parameters can be selected </text>
</g>
<!-- transformedPatternWidget&#45;&gt;dropdownPatternWidget -->
<g id="edge4" class="edge"><title>transformedPatternWidget&#45;&gt;dropdownPatternWidget</title>
<path fill="none" stroke="black" d="M600.86,-348.895C582.955,-338.599 562.392,-326.776 543.765,-316.065"/>
<polygon fill="black" stroke="black" points="545.493,-313.021 535.079,-311.071 542.004,-319.089 545.493,-313.021"/>
</g>
<!-- parameteredPatternTransformer -->
<g id="node6" class="node"><title>parameteredPatternTransformer</title>
<polygon fill="none" stroke="black" points="640,-255 640,-311 978,-311 978,-255 640,-255"/>
<text text-anchor="start" x="721.5" y="-296.8" font-family="Times,serif" font-size="14.00">parameteredPatternTransformer</text>
<text text-anchor="start" x="719.5" y="-282.8" font-family="Times,serif" font-size="14.00"> </text>
<text text-anchor="start" x="723.5" y="-282.8" font-family="Times,serif" font-size="10.00">A function that takes a PatternTransformer </text>
<text text-anchor="start" x="648" y="-272" font-family="Times,serif" font-size="10.00"> and an event and binds them in a dynamic container in the context of a monad </text>
<text text-anchor="start" x="712.5" y="-262" font-family="Times,serif" font-size="10.00"> Return a dropdown menu with transformations</text>
</g>
<!-- transformedPatternWidget&#45;&gt;parameteredPatternTransformer -->
<g id="edge12" class="edge"><title>transformedPatternWidget&#45;&gt;parameteredPatternTransformer</title>
<path fill="none" stroke="black" d="M695.435,-348.895C713.451,-338.599 734.143,-326.776 752.886,-316.065"/>
<polygon fill="black" stroke="black" points="754.681,-319.071 761.627,-311.071 751.208,-312.993 754.681,-319.071"/>
</g>
<!-- specificContainer -->
<g id="node8" class="node"><title>specificContainer</title>
<polygon fill="none" stroke="black" points="361.5,-165 361.5,-217 614.5,-217 614.5,-165 361.5,-165"/>
<text text-anchor="start" x="438" y="-202.8" font-family="Times,serif" font-size="14.00">specificContainer </text>
<text text-anchor="start" x="373" y="-192" font-family="Times,serif" font-size="10.00">A function that takes a SpecificPattern and an event and </text>
<text text-anchor="start" x="369.5" y="-182" font-family="Times,serif" font-size="10.00"> binds it to a dynamic container in the context of a monad </text>
<text text-anchor="start" x="445.5" y="-172" font-family="Times,serif" font-size="10.00"> Returns a parameter </text>
</g>
<!-- dropdownPatternWidget&#45;&gt;specificContainer -->
<g id="edge5" class="edge"><title>dropdownPatternWidget&#45;&gt;specificContainer</title>
<path fill="none" stroke="black" d="M488,-254.997C488,-246.269 488,-236.46 488,-227.228"/>
<polygon fill="black" stroke="black" points="491.5,-227.137 488,-217.137 484.5,-227.137 491.5,-227.137"/>
</g>
<!-- whitespacePopup -->
<g id="node7" class="node"><title>whitespacePopup</title>
<polygon fill="none" stroke="black" points="47,-1 47,-37 169,-37 169,-1 47,-1"/>
<text text-anchor="start" x="58.5" y="-20.8" font-family="Times,serif" font-size="14.00">whitespacePopup </text>
<text text-anchor="start" x="55" y="-10" font-family="Times,serif" font-size="10.00">placeholder for comments</text>
<text text-anchor="start" x="0" y="-39.9" font-family="Times,serif" font-size="7.00"> eitherContainer</text>
</g>
<!-- generalContainerLive -->
<g id="node9" class="node"><title>generalContainerLive</title>
<polygon fill="none" stroke="black" points="20.5,-75 20.5,-127 335.5,-127 335.5,-75 20.5,-75"/>
<text text-anchor="start" x="117" y="-112.8" font-family="Times,serif" font-size="14.00">generalContainerLive </text>
<text text-anchor="start" x="69.5" y="-102" font-family="Times,serif" font-size="10.00">A function that takes a function that takes a function </text>
<text text-anchor="start" x="69" y="-92" font-family="Times,serif" font-size="10.00"> that takes a dynamic container &#160;a GeneralPattern and </text>
<text text-anchor="start" x="28.5" y="-82" font-family="Times,serif" font-size="10.00"> an event and bind them in a dynamic container in the context of a monad</text>
</g>
<!-- specificContainer&#45;&gt;generalContainerLive -->
<g id="edge6" class="edge"><title>specificContainer&#45;&gt;generalContainerLive</title>
<path fill="none" stroke="black" d="M399.581,-164.901C360.977,-153.942 315.57,-141.052 275.944,-129.804"/>
<polygon fill="black" stroke="black" points="276.843,-126.421 266.268,-127.057 274.932,-133.154 276.843,-126.421"/>
</g>
<!-- popupIntWidget -->
<g id="node10" class="node"><title>popupIntWidget</title>
<polygon fill="none" stroke="black" points="354,-83 354,-119 476,-119 476,-83 354,-83"/>
<text text-anchor="start" x="368" y="-102.8" font-family="Times,serif" font-size="14.00">popupIntWidget </text>
<text text-anchor="start" x="362" y="-92" font-family="Times,serif" font-size="10.00">placeholder for comments</text>
</g>
<!-- specificContainer&#45;&gt;popupIntWidget -->
<g id="edge10" class="edge"><title>specificContainer&#45;&gt;popupIntWidget</title>
<path fill="none" stroke="black" d="M466.885,-164.547C457.032,-152.669 445.347,-138.583 435.564,-126.789"/>
<polygon fill="black" stroke="black" points="438.218,-124.507 429.14,-119.046 432.831,-128.977 438.218,-124.507"/>
</g>
<!-- popupSampleWidget -->
<g id="node11" class="node"><title>popupSampleWidget</title>
<polygon fill="none" stroke="black" points="494,-83 494,-119 630,-119 630,-83 494,-83"/>
<text text-anchor="start" x="502" y="-102.8" font-family="Times,serif" font-size="14.00">popupSampleWidget </text>
<text text-anchor="start" x="509" y="-92" font-family="Times,serif" font-size="10.00">placeholder for comments</text>
</g>
<!-- specificContainer&#45;&gt;popupSampleWidget -->
<g id="edge11" class="edge"><title>specificContainer&#45;&gt;popupSampleWidget</title>
<path fill="none" stroke="black" d="M509.404,-164.547C519.392,-152.669 531.237,-138.583 541.155,-126.789"/>
<polygon fill="black" stroke="black" points="543.909,-128.952 547.666,-119.046 538.551,-124.447 543.909,-128.952"/>
</g>
<!-- popupDoubleWidget -->
<g id="node13" class="node"><title>popupDoubleWidget</title>
<polygon fill="none" stroke="black" points="648.5,-83 648.5,-119 779.5,-119 779.5,-83 648.5,-83"/>
<text text-anchor="middle" x="714" y="-97.3" font-family="Times,serif" font-size="14.00">popupDoubleWidget</text>
</g>
<!-- specificContainer&#45;&gt;popupDoubleWidget -->
<g id="edge9" class="edge"><title>specificContainer&#45;&gt;popupDoubleWidget</title>
<path fill="none" stroke="black" d="M552.46,-164.901C586.63,-151.595 628.112,-135.443 660.484,-122.838"/>
<polygon fill="black" stroke="black" points="662.171,-125.937 670.219,-119.047 659.631,-119.414 662.171,-125.937"/>
</g>
<!-- generalContainerLive&#45;&gt;whitespacePopup -->
<g id="edge8" class="edge"><title>generalContainerLive&#45;&gt;whitespacePopup</title>
<path fill="none" stroke="black" d="M155.852,-74.6875C147.465,-65.1031 137.936,-54.2122 129.6,-44.6861"/>
<polygon fill="black" stroke="black" points="132.15,-42.2849 122.931,-37.0639 126.882,-46.8945 132.15,-42.2849"/>
</g>
<!-- aGLWidget -->
<g id="node12" class="node"><title>aGLWidget</title>
<polygon fill="none" stroke="black" points="187,-1 187,-37 309,-37 309,-1 187,-1"/>
<text text-anchor="start" x="206" y="-20.8" font-family="Times,serif" font-size="14.00">aGLIntWidget </text>
<text text-anchor="start" x="195" y="-10" font-family="Times,serif" font-size="10.00">placeholder for comments</text>
</g>
<!-- generalContainerLive&#45;&gt;aGLWidget -->
<g id="edge7" class="edge"><title>generalContainerLive&#45;&gt;aGLWidget</title>
<path fill="none" stroke="black" d="M200.148,-74.6875C208.535,-65.1031 218.064,-54.2122 226.4,-44.6861"/>
<polygon fill="black" stroke="black" points="229.118,-46.8945 233.069,-37.0639 223.85,-42.2849 229.118,-46.8945"/>
</g>
</g>
</svg>
