<?xml version="1.0" encoding="UTF-8" standalone="no"?>
<!DOCTYPE svg PUBLIC "-//W3C//DTD SVG 1.1//EN"
 "http://www.w3.org/Graphics/SVG/1.1/DTD/svg11.dtd">
<!-- Generated by graphviz version 2.36.0 (20140111.2315)
 -->
<!-- Title: twoStackedPatterns Pages: 1 -->
<svg width="769pt" height="490pt"
 viewBox="0.00 0.00 769.00 490.00" xmlns="http://www.w3.org/2000/svg" xmlns:xlink="http://www.w3.org/1999/xlink">
<g id="graph0" class="graph" transform="scale(1 1) rotate(0) translate(4 486)">
<title>twoStackedPatterns</title>
<polygon fill="white" stroke="none" points="-4,4 -4,-486 765,-486 765,4 -4,4"/>
<!-- twoStackedPatterns -->
<g id="node1" class="node"><title>twoStackedPatterns</title>
<polygon fill="none" stroke="black" points="513,-445 513,-481 639,-481 639,-445 513,-445"/>
<text text-anchor="start" x="522.5" y="-466.8" font-family="Times,serif" font-size="14.00">twoStackedPatterns</text>
<text text-anchor="start" x="521" y="-452.8" font-family="Times,serif" font-size="14.00"> </text>
<text text-anchor="start" x="525" y="-452.8" font-family="Times,serif" font-size="10.00">placeholder for comments</text>
</g>
<!-- iclcForStacked -->
<g id="node2" class="node"><title>iclcForStacked</title>
<polygon fill="none" stroke="black" points="513,-371 513,-407 639,-407 639,-371 513,-371"/>
<text text-anchor="start" x="535" y="-392.8" font-family="Times,serif" font-size="14.00">iclcForStacked</text>
<text text-anchor="start" x="521" y="-378.8" font-family="Times,serif" font-size="14.00"> </text>
<text text-anchor="start" x="525" y="-378.8" font-family="Times,serif" font-size="10.00">placeholder for comments</text>
</g>
<!-- twoStackedPatterns&#45;&gt;iclcForStacked -->
<g id="edge1" class="edge"><title>twoStackedPatterns&#45;&gt;iclcForStacked</title>
<path fill="none" stroke="black" d="M576,-444.937C576,-436.807 576,-426.876 576,-417.705"/>
<polygon fill="black" stroke="black" points="579.5,-417.441 576,-407.441 572.5,-417.441 579.5,-417.441"/>
</g>
<!-- transformedPatternWidget -->
<g id="node3" class="node"><title>transformedPatternWidget</title>
<polygon fill="none" stroke="black" points="401.5,-297 401.5,-333 562.5,-333 562.5,-297 401.5,-297"/>
<text text-anchor="start" x="409.5" y="-318.8" font-family="Times,serif" font-size="14.00">transformedPatternWidget</text>
<text text-anchor="start" x="427" y="-304.8" font-family="Times,serif" font-size="14.00"> </text>
<text text-anchor="start" x="431" y="-304.8" font-family="Times,serif" font-size="10.00">placeholder for comments</text>
</g>
<!-- iclcForStacked&#45;&gt;transformedPatternWidget -->
<g id="edge2" class="edge"><title>iclcForStacked&#45;&gt;transformedPatternWidget</title>
<path fill="none" stroke="black" d="M553.723,-370.937C541.404,-361.501 525.917,-349.639 512.49,-339.354"/>
<polygon fill="black" stroke="black" points="514.51,-336.492 504.443,-333.19 510.253,-342.049 514.51,-336.492"/>
</g>
<!-- patternCombinatorDropDown -->
<g id="node4" class="node"><title>patternCombinatorDropDown</title>
<polygon fill="none" stroke="black" points="581,-297 581,-333 761,-333 761,-297 581,-297"/>
<text text-anchor="start" x="589" y="-318.8" font-family="Times,serif" font-size="14.00">patternCombinatorDropDown</text>
<text text-anchor="start" x="616" y="-304.8" font-family="Times,serif" font-size="14.00"> </text>
<text text-anchor="start" x="620" y="-304.8" font-family="Times,serif" font-size="10.00">placeholder for comments</text>
<text text-anchor="start" x="509" y="-337.3" font-family="Times,serif" font-size="14.00">eitherWidget</text>
</g>
<!-- iclcForStacked&#45;&gt;patternCombinatorDropDown -->
<g id="edge3" class="edge"><title>iclcForStacked&#45;&gt;patternCombinatorDropDown</title>
<path fill="none" stroke="black" d="M598.514,-370.937C610.964,-361.501 626.615,-349.639 640.186,-339.354"/>
<polygon fill="black" stroke="black" points="642.463,-342.02 648.319,-333.19 638.235,-336.441 642.463,-342.02"/>
</g>
<!-- dropdownPatternWidget -->
<g id="node5" class="node"><title>dropdownPatternWidget</title>
<polygon fill="none" stroke="black" points="313,-223 313,-259 463,-259 463,-223 313,-223"/>
<text text-anchor="start" x="321" y="-244.8" font-family="Times,serif" font-size="14.00">dropdownPatternWidget</text>
<text text-anchor="start" x="333" y="-230.8" font-family="Times,serif" font-size="14.00"> </text>
<text text-anchor="start" x="337" y="-230.8" font-family="Times,serif" font-size="10.00">placeholder for comments</text>
</g>
<!-- transformedPatternWidget&#45;&gt;dropdownPatternWidget -->
<g id="edge4" class="edge"><title>transformedPatternWidget&#45;&gt;dropdownPatternWidget</title>
<path fill="none" stroke="black" d="M459.723,-296.937C447.404,-287.501 431.917,-275.639 418.49,-265.354"/>
<polygon fill="black" stroke="black" points="420.51,-262.492 410.443,-259.19 416.253,-268.049 420.51,-262.492"/>
</g>
<!-- parameteredPatternTransformer -->
<g id="node6" class="node"><title>parameteredPatternTransformer</title>
<polygon fill="none" stroke="black" points="481.5,-223 481.5,-259 672.5,-259 672.5,-223 481.5,-223"/>
<text text-anchor="start" x="489.5" y="-244.8" font-family="Times,serif" font-size="14.00">parameteredPatternTransformer</text>
<text text-anchor="start" x="522" y="-230.8" font-family="Times,serif" font-size="14.00"> </text>
<text text-anchor="start" x="526" y="-230.8" font-family="Times,serif" font-size="10.00">placeholder for comments</text>
</g>
<!-- transformedPatternWidget&#45;&gt;parameteredPatternTransformer -->
<g id="edge12" class="edge"><title>transformedPatternWidget&#45;&gt;parameteredPatternTransformer</title>
<path fill="none" stroke="black" d="M504.514,-296.937C516.964,-287.501 532.615,-275.639 546.186,-265.354"/>
<polygon fill="black" stroke="black" points="548.463,-268.02 554.319,-259.19 544.235,-262.441 548.463,-268.02"/>
</g>
<!-- specificContainer -->
<g id="node9" class="node"><title>specificContainer</title>
<polygon fill="none" stroke="black" points="327,-149 327,-185 449,-185 449,-149 327,-149"/>
<text text-anchor="start" x="336.5" y="-168.8" font-family="Times,serif" font-size="14.00">generalContainers </text>
<text text-anchor="start" x="335" y="-158" font-family="Times,serif" font-size="10.00">placeholder for comments</text>
</g>
<!-- dropdownPatternWidget&#45;&gt;specificContainer -->
<g id="edge5" class="edge"><title>dropdownPatternWidget&#45;&gt;specificContainer</title>
<path fill="none" stroke="black" d="M388,-222.937C388,-214.807 388,-204.876 388,-195.705"/>
<polygon fill="black" stroke="black" points="391.5,-195.441 388,-185.441 384.5,-195.441 391.5,-195.441"/>
</g>
<!-- whitespacePopup -->
<g id="node7" class="node"><title>whitespacePopup</title>
<polygon fill="none" stroke="black" points="47,-1 47,-37 169,-37 169,-1 47,-1"/>
<text text-anchor="start" x="56.5" y="-20.8" font-family="Times,serif" font-size="14.00">generalContainers </text>
<text text-anchor="start" x="55" y="-10" font-family="Times,serif" font-size="10.00">placeholder for comments</text>
<text text-anchor="start" x="0" y="-39.9" font-family="Times,serif" font-size="7.00"> eitherContainer</text>
</g>
<!-- generalContainer -->
<g id="node8" class="node"><title>generalContainer</title>
<polygon fill="none" stroke="black" points="117,-75 117,-111 239,-111 239,-75 117,-75"/>
<text text-anchor="start" x="126.5" y="-94.8" font-family="Times,serif" font-size="14.00">generalContainers </text>
<text text-anchor="start" x="125" y="-84" font-family="Times,serif" font-size="10.00">placeholder for comments</text>
</g>
<!-- generalContainer&#45;&gt;whitespacePopup -->
<g id="edge8" class="edge"><title>generalContainer&#45;&gt;whitespacePopup</title>
<path fill="none" stroke="black" d="M161.411,-74.937C152.648,-65.9235 141.732,-54.6959 132.057,-44.7443"/>
<polygon fill="black" stroke="black" points="134.437,-42.1709 124.956,-37.4407 129.418,-47.0504 134.437,-42.1709"/>
</g>
<!-- aGLWidget -->
<g id="node10" class="node"><title>aGLWidget</title>
<polygon fill="none" stroke="black" points="187,-1 187,-37 309,-37 309,-1 187,-1"/>
<text text-anchor="start" x="196.5" y="-20.8" font-family="Times,serif" font-size="14.00">generalContainers </text>
<text text-anchor="start" x="195" y="-10" font-family="Times,serif" font-size="10.00">placeholder for comments</text>
</g>
<!-- generalContainer&#45;&gt;aGLWidget -->
<g id="edge7" class="edge"><title>generalContainer&#45;&gt;aGLWidget</title>
<path fill="none" stroke="black" d="M194.589,-74.937C203.352,-65.9235 214.268,-54.6959 223.943,-44.7443"/>
<polygon fill="black" stroke="black" points="226.582,-47.0504 231.044,-37.4407 221.563,-42.1709 226.582,-47.0504"/>
</g>
<!-- specificContainer&#45;&gt;generalContainer -->
<g id="edge6" class="edge"><title>specificContainer&#45;&gt;generalContainer</title>
<path fill="none" stroke="black" d="M338.233,-148.937C308.005,-138.573 269.241,-125.283 237.412,-114.37"/>
<polygon fill="black" stroke="black" points="238.368,-110.998 227.773,-111.065 236.098,-117.619 238.368,-110.998"/>
</g>
<!-- aGLDoubleWidget -->
<g id="node11" class="node"><title>aGLDoubleWidget</title>
<polygon fill="none" stroke="black" points="257,-75 257,-111 379,-111 379,-75 257,-75"/>
<text text-anchor="start" x="266.5" y="-94.8" font-family="Times,serif" font-size="14.00">generalContainers </text>
<text text-anchor="start" x="265" y="-84" font-family="Times,serif" font-size="10.00">placeholder for comments</text>
</g>
<!-- specificContainer&#45;&gt;aGLDoubleWidget -->
<g id="edge9" class="edge"><title>specificContainer&#45;&gt;aGLDoubleWidget</title>
<path fill="none" stroke="black" d="M371.411,-148.937C362.648,-139.924 351.732,-128.696 342.057,-118.744"/>
<polygon fill="black" stroke="black" points="344.437,-116.171 334.956,-111.441 339.418,-121.05 344.437,-116.171"/>
</g>
<!-- aGLIntWidget -->
<g id="node12" class="node"><title>aGLIntWidget</title>
<polygon fill="none" stroke="black" points="397,-75 397,-111 519,-111 519,-75 397,-75"/>
<text text-anchor="start" x="406.5" y="-94.8" font-family="Times,serif" font-size="14.00">generalContainers </text>
<text text-anchor="start" x="405" y="-84" font-family="Times,serif" font-size="10.00">placeholder for comments</text>
</g>
<!-- specificContainer&#45;&gt;aGLIntWidget -->
<g id="edge10" class="edge"><title>specificContainer&#45;&gt;aGLIntWidget</title>
<path fill="none" stroke="black" d="M404.589,-148.937C413.352,-139.924 424.268,-128.696 433.943,-118.744"/>
<polygon fill="black" stroke="black" points="436.582,-121.05 441.044,-111.441 431.563,-116.171 436.582,-121.05"/>
</g>
<!-- popupSampleWidget -->
<g id="node13" class="node"><title>popupSampleWidget</title>
<polygon fill="none" stroke="black" points="537,-75 537,-111 659,-111 659,-75 537,-75"/>
<text text-anchor="start" x="546.5" y="-94.8" font-family="Times,serif" font-size="14.00">generalContainers </text>
<text text-anchor="start" x="545" y="-84" font-family="Times,serif" font-size="10.00">placeholder for comments</text>
</g>
<!-- specificContainer&#45;&gt;popupSampleWidget -->
<g id="edge11" class="edge"><title>specificContainer&#45;&gt;popupSampleWidget</title>
<path fill="none" stroke="black" d="M437.767,-148.937C467.995,-138.573 506.759,-125.283 538.588,-114.37"/>
<polygon fill="black" stroke="black" points="539.902,-117.619 548.227,-111.065 537.632,-110.998 539.902,-117.619"/>
</g>
</g>
</svg>
