<?xml version="1.0" encoding="UTF-8" standalone="no"?>
<!DOCTYPE svg PUBLIC "-//W3C//DTD SVG 1.1//EN"
 "http://www.w3.org/Graphics/SVG/1.1/DTD/svg11.dtd">
<!-- Generated by graphviz version 2.36.0 (20140111.2315)
 -->
<!-- Title: twoStackedPatterns Pages: 1 -->
<svg width="772pt" height="500pt"
 viewBox="0.00 0.00 772.00 500.00" xmlns="http://www.w3.org/2000/svg" xmlns:xlink="http://www.w3.org/1999/xlink">
<g id="graph0" class="graph" transform="scale(1 1) rotate(0) translate(4 496)">
<title>twoStackedPatterns</title>
<polygon fill="white" stroke="none" points="-4,4 -4,-496 768,-496 768,4 -4,4"/>
<!-- twoStackedPatterns -->
<g id="node1" class="node"><title>twoStackedPatterns</title>
<polygon fill="none" stroke="black" points="438,-445 438,-491 720,-491 720,-445 438,-445"/>
<text text-anchor="start" x="525.5" y="-476.8" font-family="Times,serif" font-size="14.00">twoStackedPatterns</text>
<text text-anchor="start" x="531.5" y="-462.8" font-family="Times,serif" font-size="14.00"> </text>
<text text-anchor="start" x="535.5" y="-462.8" font-family="Times,serif" font-size="10.00">An event handler that </text>
<text text-anchor="start" x="446" y="-452" font-family="Times,serif" font-size="10.00"> returns the two &quot;stacked patterns with liveness control&quot; interface </text>
</g>
<!-- iclcForStacked -->
<g id="node2" class="node"><title>iclcForStacked</title>
<polygon fill="none" stroke="black" points="516,-371 516,-407 642,-407 642,-371 516,-371"/>
<text text-anchor="start" x="538" y="-392.8" font-family="Times,serif" font-size="14.00">iclcForStacked</text>
<text text-anchor="start" x="524" y="-378.8" font-family="Times,serif" font-size="14.00"> </text>
<text text-anchor="start" x="528" y="-378.8" font-family="Times,serif" font-size="10.00">placeholder for comments</text>
</g>
<!-- twoStackedPatterns&#45;&gt;iclcForStacked -->
<g id="edge1" class="edge"><title>twoStackedPatterns&#45;&gt;iclcForStacked</title>
<path fill="none" stroke="black" d="M579,-444.728C579,-436.266 579,-426.523 579,-417.624"/>
<polygon fill="black" stroke="black" points="582.5,-417.331 579,-407.331 575.5,-417.331 582.5,-417.331"/>
</g>
<!-- transformedPatternWidget -->
<g id="node3" class="node"><title>transformedPatternWidget</title>
<polygon fill="none" stroke="black" points="404.5,-297 404.5,-333 565.5,-333 565.5,-297 404.5,-297"/>
<text text-anchor="start" x="412.5" y="-318.8" font-family="Times,serif" font-size="14.00">transformedPatternWidget</text>
<text text-anchor="start" x="430" y="-304.8" font-family="Times,serif" font-size="14.00"> </text>
<text text-anchor="start" x="434" y="-304.8" font-family="Times,serif" font-size="10.00">placeholder for comments</text>
</g>
<!-- iclcForStacked&#45;&gt;transformedPatternWidget -->
<g id="edge2" class="edge"><title>iclcForStacked&#45;&gt;transformedPatternWidget</title>
<path fill="none" stroke="black" d="M556.723,-370.937C544.404,-361.501 528.917,-349.639 515.49,-339.354"/>
<polygon fill="black" stroke="black" points="517.51,-336.492 507.443,-333.19 513.253,-342.049 517.51,-336.492"/>
</g>
<!-- patternCombinatorDropDown -->
<g id="node4" class="node"><title>patternCombinatorDropDown</title>
<polygon fill="none" stroke="black" points="584,-297 584,-333 764,-333 764,-297 584,-297"/>
<text text-anchor="start" x="592" y="-318.8" font-family="Times,serif" font-size="14.00">patternCombinatorDropDown</text>
<text text-anchor="start" x="619" y="-304.8" font-family="Times,serif" font-size="14.00"> </text>
<text text-anchor="start" x="623" y="-304.8" font-family="Times,serif" font-size="10.00">placeholder for comments</text>
<text text-anchor="start" x="512" y="-337.3" font-family="Times,serif" font-size="14.00">eitherWidget</text>
</g>
<!-- iclcForStacked&#45;&gt;patternCombinatorDropDown -->
<g id="edge3" class="edge"><title>iclcForStacked&#45;&gt;patternCombinatorDropDown</title>
<path fill="none" stroke="black" d="M601.514,-370.937C613.964,-361.501 629.615,-349.639 643.186,-339.354"/>
<polygon fill="black" stroke="black" points="645.463,-342.02 651.319,-333.19 641.235,-336.441 645.463,-342.02"/>
</g>
<!-- dropdownPatternWidget -->
<g id="node5" class="node"><title>dropdownPatternWidget</title>
<polygon fill="none" stroke="black" points="316,-223 316,-259 466,-259 466,-223 316,-223"/>
<text text-anchor="start" x="324" y="-244.8" font-family="Times,serif" font-size="14.00">dropdownPatternWidget</text>
<text text-anchor="start" x="336" y="-230.8" font-family="Times,serif" font-size="14.00"> </text>
<text text-anchor="start" x="340" y="-230.8" font-family="Times,serif" font-size="10.00">placeholder for comments</text>
</g>
<!-- transformedPatternWidget&#45;&gt;dropdownPatternWidget -->
<g id="edge4" class="edge"><title>transformedPatternWidget&#45;&gt;dropdownPatternWidget</title>
<path fill="none" stroke="black" d="M462.723,-296.937C450.404,-287.501 434.917,-275.639 421.49,-265.354"/>
<polygon fill="black" stroke="black" points="423.51,-262.492 413.443,-259.19 419.253,-268.049 423.51,-262.492"/>
</g>
<!-- parameteredPatternTransformer -->
<g id="node6" class="node"><title>parameteredPatternTransformer</title>
<polygon fill="none" stroke="black" points="484.5,-223 484.5,-259 675.5,-259 675.5,-223 484.5,-223"/>
<text text-anchor="start" x="492.5" y="-244.8" font-family="Times,serif" font-size="14.00">parameteredPatternTransformer</text>
<text text-anchor="start" x="525" y="-230.8" font-family="Times,serif" font-size="14.00"> </text>
<text text-anchor="start" x="529" y="-230.8" font-family="Times,serif" font-size="10.00">placeholder for comments</text>
</g>
<!-- transformedPatternWidget&#45;&gt;parameteredPatternTransformer -->
<g id="edge12" class="edge"><title>transformedPatternWidget&#45;&gt;parameteredPatternTransformer</title>
<path fill="none" stroke="black" d="M507.514,-296.937C519.964,-287.501 535.615,-275.639 549.186,-265.354"/>
<polygon fill="black" stroke="black" points="551.463,-268.02 557.319,-259.19 547.235,-262.441 551.463,-268.02"/>
</g>
<!-- specificContainer -->
<g id="node9" class="node"><title>specificContainer</title>
<polygon fill="none" stroke="black" points="330,-149 330,-185 452,-185 452,-149 330,-149"/>
<text text-anchor="start" x="341" y="-168.8" font-family="Times,serif" font-size="14.00">specificContainer </text>
<text text-anchor="start" x="338" y="-158" font-family="Times,serif" font-size="10.00">placeholder for comments</text>
</g>
<!-- dropdownPatternWidget&#45;&gt;specificContainer -->
<g id="edge5" class="edge"><title>dropdownPatternWidget&#45;&gt;specificContainer</title>
<path fill="none" stroke="black" d="M391,-222.937C391,-214.807 391,-204.876 391,-195.705"/>
<polygon fill="black" stroke="black" points="394.5,-195.441 391,-185.441 387.5,-195.441 394.5,-195.441"/>
</g>
<!-- whitespacePopup -->
<g id="node7" class="node"><title>whitespacePopup</title>
<polygon fill="none" stroke="black" points="47,-1 47,-37 169,-37 169,-1 47,-1"/>
<text text-anchor="start" x="58.5" y="-20.8" font-family="Times,serif" font-size="14.00">whitespacePopup </text>
<text text-anchor="start" x="55" y="-10" font-family="Times,serif" font-size="10.00">placeholder for comments</text>
<text text-anchor="start" x="0" y="-39.9" font-family="Times,serif" font-size="7.00"> eitherContainer</text>
</g>
<!-- generalContainer -->
<g id="node8" class="node"><title>generalContainer</title>
<polygon fill="none" stroke="black" points="117,-75 117,-111 239,-111 239,-75 117,-75"/>
<text text-anchor="start" x="126.5" y="-94.8" font-family="Times,serif" font-size="14.00">generalContainers </text>
<text text-anchor="start" x="125" y="-84" font-family="Times,serif" font-size="10.00">placeholder for comments</text>
</g>
<!-- generalContainer&#45;&gt;whitespacePopup -->
<g id="edge8" class="edge"><title>generalContainer&#45;&gt;whitespacePopup</title>
<path fill="none" stroke="black" d="M161.411,-74.937C152.648,-65.9235 141.732,-54.6959 132.057,-44.7443"/>
<polygon fill="black" stroke="black" points="134.437,-42.1709 124.956,-37.4407 129.418,-47.0504 134.437,-42.1709"/>
</g>
<!-- aGLWidget -->
<g id="node10" class="node"><title>aGLWidget</title>
<polygon fill="none" stroke="black" points="187,-1 187,-37 309,-37 309,-1 187,-1"/>
<text text-anchor="start" x="206" y="-20.8" font-family="Times,serif" font-size="14.00">aGLIntWidget </text>
<text text-anchor="start" x="195" y="-10" font-family="Times,serif" font-size="10.00">placeholder for comments</text>
</g>
<!-- generalContainer&#45;&gt;aGLWidget -->
<g id="edge7" class="edge"><title>generalContainer&#45;&gt;aGLWidget</title>
<path fill="none" stroke="black" d="M194.589,-74.937C203.352,-65.9235 214.268,-54.6959 223.943,-44.7443"/>
<polygon fill="black" stroke="black" points="226.582,-47.0504 231.044,-37.4407 221.563,-42.1709 226.582,-47.0504"/>
</g>
<!-- specificContainer&#45;&gt;generalContainer -->
<g id="edge6" class="edge"><title>specificContainer&#45;&gt;generalContainer</title>
<path fill="none" stroke="black" d="M340.522,-148.937C309.863,-138.573 270.544,-125.283 238.26,-114.37"/>
<polygon fill="black" stroke="black" points="239.079,-110.952 228.484,-111.065 236.837,-117.583 239.079,-110.952"/>
</g>
<!-- aGLDoubleWidget -->
<g id="node11" class="node"><title>aGLDoubleWidget</title>
<polygon fill="none" stroke="black" points="257.5,-75 257.5,-111 382.5,-111 382.5,-75 257.5,-75"/>
<text text-anchor="start" x="265.5" y="-94.8" font-family="Times,serif" font-size="14.00">aGLDoubleWidget </text>
<text text-anchor="start" x="267" y="-84" font-family="Times,serif" font-size="10.00">placeholder for comments</text>
</g>
<!-- specificContainer&#45;&gt;aGLDoubleWidget -->
<g id="edge9" class="edge"><title>specificContainer&#45;&gt;aGLDoubleWidget</title>
<path fill="none" stroke="black" d="M374.174,-148.937C365.286,-139.924 354.214,-128.696 344.401,-118.744"/>
<polygon fill="black" stroke="black" points="346.712,-116.104 337.198,-111.441 341.728,-121.019 346.712,-116.104"/>
</g>
<!-- aGLIntWidget -->
<g id="node12" class="node"><title>aGLIntWidget</title>
<polygon fill="none" stroke="black" points="401,-75 401,-111 523,-111 523,-75 401,-75"/>
<text text-anchor="start" x="420" y="-94.8" font-family="Times,serif" font-size="14.00">aGLIntWidget </text>
<text text-anchor="start" x="409" y="-84" font-family="Times,serif" font-size="10.00">placeholder for comments</text>
</g>
<!-- specificContainer&#45;&gt;aGLIntWidget -->
<g id="edge10" class="edge"><title>specificContainer&#45;&gt;aGLIntWidget</title>
<path fill="none" stroke="black" d="M407.826,-148.937C416.714,-139.924 427.786,-128.696 437.599,-118.744"/>
<polygon fill="black" stroke="black" points="440.272,-121.019 444.802,-111.441 435.288,-116.104 440.272,-121.019"/>
</g>
<!-- popupSampleWidget -->
<g id="node13" class="node"><title>popupSampleWidget</title>
<polygon fill="none" stroke="black" points="541,-75 541,-111 677,-111 677,-75 541,-75"/>
<text text-anchor="start" x="549" y="-94.8" font-family="Times,serif" font-size="14.00">popupSampleWidget </text>
<text text-anchor="start" x="556" y="-84" font-family="Times,serif" font-size="10.00">placeholder for comments</text>
</g>
<!-- specificContainer&#45;&gt;popupSampleWidget -->
<g id="edge11" class="edge"><title>specificContainer&#45;&gt;popupSampleWidget</title>
<path fill="none" stroke="black" d="M442.663,-148.937C474.177,-138.529 514.631,-125.168 547.752,-114.229"/>
<polygon fill="black" stroke="black" points="548.933,-117.525 557.331,-111.065 546.737,-110.878 548.933,-117.525"/>
</g>
</g>
</svg>
